<svg xmlns="http://www.w3.org/2000/svg" xmlns:xlink="http://www.w3.org/1999/xlink" width="197" zoomAndPan="magnify" viewBox="0 0 147.75 147.750002" height="197" preserveAspectRatio="xMidYMid meet" version="1.0"><defs><clipPath id="d5d318630b"><path d="M 4 4 L 146.75 4 L 146.75 146.75 L 4 146.75 Z M 4 4 " clip-rule="nonzero"/></clipPath><clipPath id="ae0afef3c8"><path d="M 4 4 L 146.75 4 L 146.75 146.75 L 4 146.75 Z M 4 4 " clip-rule="nonzero"/></clipPath></defs><g clip-path="url(#d5d318630b)"><path fill="#110804" d="M 75.503906 147.003906 C 74.09375 147.003906 72.882812 146.003906 72.617188 144.621094 C 67.980469 120.445312 63.726562 105.605469 54.5625 96.445312 C 45.402344 87.28125 30.5625 83.027344 6.386719 78.390625 C 5.003906 78.125 4 76.914062 4 75.503906 C 4 74.09375 5.003906 72.882812 6.386719 72.617188 C 30.5625 67.980469 45.398438 63.726562 54.5625 54.5625 C 63.726562 45.398438 67.980469 30.5625 72.617188 6.386719 C 72.882812 5.003906 74.09375 4.003906 75.503906 4.003906 C 76.914062 4.003906 78.125 5.003906 78.390625 6.386719 C 83.027344 30.5625 87.28125 45.398438 96.441406 54.5625 C 105.605469 63.726562 120.445312 67.980469 144.621094 72.617188 C 146.003906 72.882812 147.003906 74.09375 147.003906 75.503906 C 147.003906 76.914062 146.003906 78.125 144.621094 78.390625 C 120.445312 83.027344 105.605469 87.28125 96.441406 96.445312 C 87.28125 105.605469 83.027344 120.445312 78.390625 144.621094 C 78.125 146.003906 76.914062 147.003906 75.503906 147.003906 Z M 75.503906 147.003906 " fill-opacity="1" fill-rule="nonzero"/></g><path fill="#110804" d="M 71.503906 143.003906 C 70.09375 143.003906 68.882812 142.003906 68.617188 140.621094 C 63.976562 116.445312 59.726562 101.605469 50.5625 92.441406 C 41.398438 83.277344 26.558594 79.027344 2.386719 74.386719 C 1 74.121094 0 72.910156 0 71.503906 C 0 70.09375 1 68.882812 2.386719 68.617188 C 26.558594 63.976562 41.398438 59.726562 50.5625 50.5625 C 59.726562 41.398438 63.976562 26.5625 68.617188 2.386719 C 68.882812 1 70.09375 0 71.503906 0 C 72.910156 0 74.121094 1 74.386719 2.386719 C 79.027344 26.5625 83.277344 41.398438 92.441406 50.5625 C 101.605469 59.726562 116.445312 63.976562 140.621094 68.617188 C 142.003906 68.882812 143.003906 70.09375 143.003906 71.503906 C 143.003906 72.910156 142.003906 74.121094 140.621094 74.386719 C 116.445312 79.027344 101.605469 83.277344 92.441406 92.441406 C 83.277344 101.605469 79.027344 116.445312 74.386719 140.621094 C 74.121094 142.003906 72.910156 143.003906 71.503906 143.003906 Z M 71.503906 143.003906 " fill-opacity="1" fill-rule="nonzero"/><path fill="#5271ff" d="M 140.066406 71.503906 C 89.183594 81.265625 81.265625 89.183594 71.503906 140.066406 C 61.738281 89.183594 53.820312 81.265625 2.9375 71.503906 C 53.820312 61.738281 61.738281 53.820312 71.503906 2.9375 C 81.265625 53.820312 89.183594 61.738281 140.066406 71.503906 Z M 140.066406 71.503906 " fill-opacity="1" fill-rule="nonzero"/><g clip-path="url(#ae0afef3c8)"><path fill="#110804" d="M 75.503906 147.003906 C 74.09375 147.003906 72.882812 146.003906 72.617188 144.621094 C 67.980469 120.445312 63.726562 105.605469 54.5625 96.445312 C 45.402344 87.28125 30.5625 83.027344 6.386719 78.390625 C 5.003906 78.125 4 76.914062 4 75.503906 C 4 74.09375 5.003906 72.882812 6.386719 72.617188 C 30.5625 67.980469 45.398438 63.726562 54.5625 54.5625 C 63.726562 45.398438 67.980469 30.5625 72.617188 6.386719 C 72.882812 5.003906 74.09375 4.003906 75.503906 4.003906 C 76.914062 4.003906 78.125 5.003906 78.390625 6.386719 C 83.027344 30.5625 87.28125 45.398438 96.441406 54.5625 C 105.605469 63.726562 120.445312 67.980469 144.621094 72.617188 C 146.003906 72.882812 147.003906 74.09375 147.003906 75.503906 C 147.003906 76.914062 146.003906 78.125 144.621094 78.390625 C 120.445312 83.027344 105.605469 87.28125 96.441406 96.445312 C 87.28125 105.605469 83.027344 120.445312 78.390625 144.621094 C 78.125 146.003906 76.914062 147.003906 75.503906 147.003906 Z M 75.503906 147.003906 " fill-opacity="1" fill-rule="nonzero"/></g><path fill="#110804" d="M 71.503906 143.003906 C 70.09375 143.003906 68.882812 142.003906 68.617188 140.621094 C 63.976562 116.445312 59.726562 101.605469 50.5625 92.441406 C 41.398438 83.277344 26.558594 79.027344 2.386719 74.386719 C 1 74.121094 0 72.910156 0 71.503906 C 0 70.09375 1 68.882812 2.386719 68.617188 C 26.558594 63.976562 41.398438 59.726562 50.5625 50.5625 C 59.726562 41.398438 63.976562 26.5625 68.617188 2.386719 C 68.882812 1 70.09375 0 71.503906 0 C 72.910156 0 74.121094 1 74.386719 2.386719 C 79.027344 26.5625 83.277344 41.398438 92.441406 50.5625 C 101.605469 59.726562 116.445312 63.976562 140.621094 68.617188 C 142.003906 68.882812 143.003906 70.09375 143.003906 71.503906 C 143.003906 72.910156 142.003906 74.121094 140.621094 74.386719 C 116.445312 79.027344 101.605469 83.277344 92.441406 92.441406 C 83.277344 101.605469 79.027344 116.445312 74.386719 140.621094 C 74.121094 142.003906 72.910156 143.003906 71.503906 143.003906 Z M 71.503906 143.003906 " fill-opacity="1" fill-rule="nonzero"/><path fill="#5271ff" d="M 140.066406 71.503906 C 89.183594 81.265625 81.265625 89.183594 71.503906 140.066406 C 61.738281 89.183594 53.820312 81.265625 2.9375 71.503906 C 53.820312 61.738281 61.738281 53.820312 71.503906 2.9375 C 81.265625 53.820312 89.183594 61.738281 140.066406 71.503906 Z M 140.066406 71.503906 " fill-opacity="1" fill-rule="nonzero"/></svg>