<svg xmlns="http://www.w3.org/2000/svg" xmlns:xlink="http://www.w3.org/1999/xlink" width="408" zoomAndPan="magnify" viewBox="0 0 306 305.999988" height="408" preserveAspectRatio="xMidYMid meet" version="1.0"><path fill="#110804" d="M 157.160156 305.992188 C 154.226562 305.992188 151.707031 303.910156 151.15625 301.03125 C 141.5 250.707031 132.648438 219.820312 113.574219 200.746094 C 94.5 181.671875 63.613281 172.824219 13.292969 163.167969 C 10.414062 162.617188 8.328125 160.09375 8.328125 157.164062 C 8.328125 154.230469 10.414062 151.707031 13.292969 151.15625 C 63.613281 141.5 94.5 132.648438 113.574219 113.574219 C 132.648438 94.5 141.5 63.617188 151.15625 13.292969 C 151.707031 10.414062 154.226562 8.332031 157.160156 8.332031 C 160.09375 8.332031 162.613281 10.414062 163.167969 13.292969 C 172.824219 63.617188 181.671875 94.5 200.746094 113.574219 C 219.820312 132.648438 250.707031 141.5 301.027344 151.15625 C 303.910156 151.707031 305.992188 154.230469 305.992188 157.164062 C 305.992188 160.09375 303.910156 162.617188 301.027344 163.167969 C 250.707031 172.824219 219.820312 181.675781 200.746094 200.746094 C 181.671875 219.820312 172.824219 250.707031 163.167969 301.03125 C 162.613281 303.910156 160.09375 305.992188 157.160156 305.992188 Z M 157.160156 305.992188 " fill-opacity="1" fill-rule="nonzero"/><path fill="#110804" d="M 148.832031 297.664062 C 145.898438 297.664062 143.378906 295.582031 142.824219 292.699219 C 133.167969 242.378906 124.320312 211.492188 105.246094 192.417969 C 86.171875 173.34375 55.285156 164.496094 4.964844 154.839844 C 2.082031 154.285156 0 151.765625 0 148.832031 C 0 145.898438 2.082031 143.378906 4.964844 142.828125 C 55.285156 133.167969 86.171875 124.320312 105.246094 105.246094 C 124.320312 86.171875 133.167969 55.285156 142.824219 4.964844 C 143.378906 2.082031 145.898438 0 148.832031 0 C 151.765625 0 154.285156 2.082031 154.839844 4.964844 C 164.496094 55.285156 173.34375 86.171875 192.417969 105.246094 C 211.492188 124.320312 242.378906 133.167969 292.699219 142.828125 C 295.582031 143.378906 297.664062 145.898438 297.664062 148.832031 C 297.664062 151.765625 295.582031 154.285156 292.699219 154.839844 C 242.378906 164.496094 211.492188 173.34375 192.417969 192.417969 C 173.34375 211.492188 164.496094 242.378906 154.839844 292.699219 C 154.285156 295.582031 151.765625 297.664062 148.832031 297.664062 Z M 148.832031 297.664062 " fill-opacity="1" fill-rule="nonzero"/><path fill="#ffc764" d="M 291.546875 148.832031 C 185.632812 169.15625 169.15625 185.632812 148.832031 291.546875 C 128.507812 185.632812 112.03125 169.15625 6.117188 148.832031 C 112.03125 128.507812 128.507812 112.03125 148.832031 6.117188 C 169.15625 112.03125 185.632812 128.507812 291.546875 148.832031 Z M 291.546875 148.832031 " fill-opacity="1" fill-rule="nonzero"/><path fill="#110804" d="M 157.160156 305.992188 C 154.226562 305.992188 151.707031 303.910156 151.15625 301.03125 C 141.5 250.707031 132.648438 219.820312 113.574219 200.746094 C 94.5 181.671875 63.613281 172.824219 13.292969 163.167969 C 10.414062 162.617188 8.328125 160.09375 8.328125 157.164062 C 8.328125 154.230469 10.414062 151.707031 13.292969 151.15625 C 63.613281 141.5 94.5 132.648438 113.574219 113.574219 C 132.648438 94.5 141.5 63.617188 151.15625 13.292969 C 151.707031 10.414062 154.226562 8.332031 157.160156 8.332031 C 160.09375 8.332031 162.613281 10.414062 163.167969 13.292969 C 172.824219 63.617188 181.671875 94.5 200.746094 113.574219 C 219.820312 132.648438 250.707031 141.5 301.027344 151.15625 C 303.910156 151.707031 305.992188 154.230469 305.992188 157.164062 C 305.992188 160.09375 303.910156 162.617188 301.027344 163.167969 C 250.707031 172.824219 219.820312 181.675781 200.746094 200.746094 C 181.671875 219.820312 172.824219 250.707031 163.167969 301.03125 C 162.613281 303.910156 160.09375 305.992188 157.160156 305.992188 Z M 157.160156 305.992188 " fill-opacity="1" fill-rule="nonzero"/><path fill="#110804" d="M 148.832031 297.664062 C 145.898438 297.664062 143.378906 295.582031 142.824219 292.699219 C 133.167969 242.378906 124.320312 211.492188 105.246094 192.417969 C 86.171875 173.34375 55.285156 164.496094 4.964844 154.839844 C 2.082031 154.285156 0 151.765625 0 148.832031 C 0 145.898438 2.082031 143.378906 4.964844 142.828125 C 55.285156 133.167969 86.171875 124.320312 105.246094 105.246094 C 124.320312 86.171875 133.167969 55.285156 142.824219 4.964844 C 143.378906 2.082031 145.898438 0 148.832031 0 C 151.765625 0 154.285156 2.082031 154.839844 4.964844 C 164.496094 55.285156 173.34375 86.171875 192.417969 105.246094 C 211.492188 124.320312 242.378906 133.167969 292.699219 142.828125 C 295.582031 143.378906 297.664062 145.898438 297.664062 148.832031 C 297.664062 151.765625 295.582031 154.285156 292.699219 154.839844 C 242.378906 164.496094 211.492188 173.34375 192.417969 192.417969 C 173.34375 211.492188 164.496094 242.378906 154.839844 292.699219 C 154.285156 295.582031 151.765625 297.664062 148.832031 297.664062 Z M 148.832031 297.664062 " fill-opacity="1" fill-rule="nonzero"/><path fill="#ffc764" d="M 291.546875 148.832031 C 185.632812 169.15625 169.15625 185.632812 148.832031 291.546875 C 128.507812 185.632812 112.03125 169.15625 6.117188 148.832031 C 112.03125 128.507812 128.507812 112.03125 148.832031 6.117188 C 169.15625 112.03125 185.632812 128.507812 291.546875 148.832031 Z M 291.546875 148.832031 " fill-opacity="1" fill-rule="nonzero"/></svg>