<svg xmlns="http://www.w3.org/2000/svg" xmlns:xlink="http://www.w3.org/1999/xlink" width="1920" zoomAndPan="magnify" viewBox="0 0 1440 809.999993" height="1080" preserveAspectRatio="xMidYMid meet" version="1.0"><path fill="#5271ff" d="M 1125 405 C 1125 411.628906 1124.835938 418.253906 1124.511719 424.871094 C 1124.1875 431.492188 1123.699219 438.101562 1123.050781 444.695312 C 1122.398438 451.292969 1121.589844 457.871094 1120.617188 464.425781 C 1119.644531 470.980469 1118.511719 477.511719 1117.21875 484.011719 C 1115.925781 490.511719 1114.472656 496.976562 1112.863281 503.40625 C 1111.253906 509.835938 1109.484375 516.222656 1107.5625 522.566406 C 1105.636719 528.90625 1103.558594 535.199219 1101.324219 541.441406 C 1099.09375 547.679688 1096.707031 553.863281 1094.171875 559.988281 C 1091.632812 566.109375 1088.949219 572.167969 1086.117188 578.160156 C 1083.28125 584.152344 1080.300781 590.070312 1077.179688 595.914062 C 1074.054688 601.761719 1070.789062 607.527344 1067.378906 613.210938 C 1063.972656 618.898438 1060.425781 624.496094 1056.746094 630.007812 C 1053.0625 635.515625 1049.246094 640.933594 1045.300781 646.257812 C 1041.351562 651.582031 1037.273438 656.804688 1033.070312 661.929688 C 1028.863281 667.054688 1024.535156 672.070312 1020.085938 676.980469 C 1015.632812 681.890625 1011.066406 686.691406 1006.378906 691.378906 C 1001.691406 696.066406 996.890625 700.632812 991.980469 705.085938 C 987.070312 709.535156 982.054688 713.863281 976.929688 718.070312 C 971.804688 722.273438 966.582031 726.351562 961.257812 730.300781 C 955.933594 734.246094 950.515625 738.0625 945.007812 741.746094 C 939.496094 745.425781 933.898438 748.972656 928.210938 752.378906 C 922.527344 755.789062 916.761719 759.054688 910.914062 762.179688 C 905.070312 765.300781 899.152344 768.28125 893.160156 771.117188 C 887.167969 773.949219 881.109375 776.632812 874.988281 779.171875 C 868.863281 781.707031 862.679688 784.09375 856.441406 786.324219 C 850.199219 788.558594 843.90625 790.636719 837.566406 792.5625 C 831.222656 794.484375 824.835938 796.253906 818.40625 797.863281 C 811.976562 799.472656 805.511719 800.925781 799.011719 802.21875 C 792.511719 803.511719 785.980469 804.644531 779.425781 805.617188 C 772.871094 806.589844 766.292969 807.398438 759.695312 808.050781 C 753.101562 808.699219 746.492188 809.1875 739.871094 809.511719 C 733.253906 809.835938 726.628906 810 720 810 C 713.371094 810 706.746094 809.835938 700.128906 809.511719 C 693.507812 809.1875 686.898438 808.699219 680.304688 808.050781 C 673.707031 807.398438 667.128906 806.589844 660.574219 805.617188 C 654.019531 804.644531 647.488281 803.511719 640.988281 802.21875 C 634.488281 800.925781 628.023438 799.472656 621.59375 797.863281 C 615.164062 796.253906 608.777344 794.484375 602.433594 792.5625 C 596.09375 790.636719 589.800781 788.558594 583.558594 786.324219 C 577.320312 784.09375 571.136719 781.707031 565.011719 779.171875 C 558.890625 776.632812 552.832031 773.949219 546.839844 771.117188 C 540.847656 768.28125 534.929688 765.300781 529.085938 762.179688 C 523.238281 759.054688 517.472656 755.789062 511.789062 752.378906 C 506.101562 748.972656 500.503906 745.425781 494.992188 741.746094 C 489.484375 738.0625 484.066406 734.246094 478.742188 730.300781 C 473.417969 726.351562 468.195312 722.273438 463.070312 718.070312 C 457.945312 713.863281 452.929688 709.535156 448.019531 705.085938 C 443.109375 700.632812 438.308594 696.066406 433.621094 691.378906 C 428.933594 686.691406 424.367188 681.890625 419.914062 676.980469 C 415.464844 672.070312 411.136719 667.054688 406.929688 661.929688 C 402.726562 656.804688 398.648438 651.582031 394.699219 646.257812 C 390.753906 640.933594 386.9375 635.515625 383.253906 630.007812 C 379.574219 624.496094 376.027344 618.898438 372.621094 613.210938 C 369.210938 607.527344 365.945312 601.761719 362.820312 595.914062 C 359.699219 590.070312 356.71875 584.152344 353.882812 578.160156 C 351.050781 572.167969 348.367188 566.109375 345.828125 559.988281 C 343.292969 553.863281 340.90625 547.679688 338.675781 541.441406 C 336.441406 535.199219 334.363281 528.90625 332.4375 522.566406 C 330.515625 516.222656 328.746094 509.835938 327.136719 503.40625 C 325.527344 496.976562 324.074219 490.511719 322.78125 484.011719 C 321.488281 477.511719 320.355469 470.980469 319.382812 464.425781 C 318.410156 457.871094 317.601562 451.292969 316.949219 444.695312 C 316.300781 438.101562 315.8125 431.492188 315.488281 424.871094 C 315.164062 418.253906 315 411.628906 315 405 C 315 398.371094 315.164062 391.746094 315.488281 385.128906 C 315.8125 378.507812 316.300781 371.898438 316.949219 365.304688 C 317.601562 358.707031 318.410156 352.128906 319.382812 345.574219 C 320.355469 339.019531 321.488281 332.488281 322.78125 325.988281 C 324.074219 319.488281 325.527344 313.023438 327.136719 306.59375 C 328.746094 300.164062 330.515625 293.777344 332.4375 287.433594 C 334.363281 281.09375 336.441406 274.800781 338.675781 268.558594 C 340.90625 262.320312 343.292969 256.136719 345.828125 250.011719 C 348.367188 243.890625 351.050781 237.832031 353.882812 231.839844 C 356.71875 225.847656 359.699219 219.929688 362.820312 214.085938 C 365.945312 208.238281 369.210938 202.472656 372.621094 196.789062 C 376.027344 191.101562 379.574219 185.503906 383.253906 179.992188 C 386.9375 174.484375 390.753906 169.066406 394.699219 163.742188 C 398.648438 158.417969 402.726562 153.195312 406.929688 148.070312 C 411.136719 142.945312 415.464844 137.929688 419.914062 133.019531 C 424.367188 128.109375 428.933594 123.308594 433.621094 118.621094 C 438.308594 113.933594 443.109375 109.367188 448.019531 104.914062 C 452.929688 100.464844 457.945312 96.136719 463.070312 91.929688 C 468.195312 87.726562 473.417969 83.648438 478.742188 79.699219 C 484.066406 75.753906 489.484375 71.9375 494.992188 68.253906 C 500.503906 64.574219 506.101562 61.027344 511.789062 57.621094 C 517.472656 54.210938 523.238281 50.945312 529.085938 47.820312 C 534.929688 44.699219 540.847656 41.71875 546.839844 38.882812 C 552.832031 36.050781 558.890625 33.367188 565.011719 30.828125 C 571.136719 28.292969 577.320312 25.90625 583.558594 23.675781 C 589.800781 21.441406 596.09375 19.363281 602.433594 17.4375 C 608.777344 15.515625 615.164062 13.746094 621.59375 12.136719 C 628.023438 10.527344 634.488281 9.074219 640.988281 7.78125 C 647.488281 6.488281 654.019531 5.355469 660.574219 4.382812 C 667.128906 3.410156 673.707031 2.601562 680.304688 1.949219 C 686.898438 1.300781 693.507812 0.8125 700.128906 0.488281 C 706.746094 0.164062 713.371094 0 720 0 C 726.628906 0 733.253906 0.164062 739.871094 0.488281 C 746.492188 0.8125 753.101562 1.300781 759.695312 1.949219 C 766.292969 2.601562 772.871094 3.410156 779.425781 4.382812 C 785.980469 5.355469 792.511719 6.488281 799.011719 7.78125 C 805.511719 9.074219 811.976562 10.527344 818.40625 12.136719 C 824.835938 13.746094 831.222656 15.515625 837.566406 17.4375 C 843.90625 19.363281 850.199219 21.441406 856.441406 23.675781 C 862.679688 25.90625 868.863281 28.292969 874.988281 30.828125 C 881.109375 33.367188 887.167969 36.050781 893.160156 38.882812 C 899.152344 41.71875 905.070312 44.699219 910.914062 47.820312 C 916.761719 50.945312 922.527344 54.210938 928.210938 57.621094 C 933.898438 61.027344 939.496094 64.574219 945.007812 68.253906 C 950.515625 71.9375 955.933594 75.753906 961.257812 79.699219 C 966.582031 83.648438 971.804688 87.726562 976.929688 91.929688 C 982.054688 96.136719 987.070312 100.464844 991.980469 104.914062 C 996.890625 109.367188 1001.691406 113.933594 1006.378906 118.621094 C 1011.066406 123.308594 1015.632812 128.109375 1020.085938 133.019531 C 1024.535156 137.929688 1028.863281 142.945312 1033.070312 148.070312 C 1037.273438 153.195312 1041.351562 158.417969 1045.300781 163.742188 C 1049.246094 169.066406 1053.0625 174.484375 1056.746094 179.992188 C 1060.425781 185.503906 1063.972656 191.101562 1067.378906 196.789062 C 1070.789062 202.472656 1074.054688 208.238281 1077.179688 214.085938 C 1080.300781 219.929688 1083.28125 225.847656 1086.117188 231.839844 C 1088.949219 237.832031 1091.632812 243.890625 1094.171875 250.011719 C 1096.707031 256.136719 1099.09375 262.320312 1101.324219 268.558594 C 1103.558594 274.800781 1105.636719 281.09375 1107.5625 287.433594 C 1109.484375 293.777344 1111.253906 300.164062 1112.863281 306.59375 C 1114.472656 313.023438 1115.925781 319.488281 1117.21875 325.988281 C 1118.511719 332.488281 1119.644531 339.019531 1120.617188 345.574219 C 1121.589844 352.128906 1122.398438 358.707031 1123.050781 365.304688 C 1123.699219 371.898438 1124.1875 378.507812 1124.511719 385.128906 C 1124.835938 391.746094 1125 398.371094 1125 405 Z M 1125 405 " fill-opacity="1" fill-rule="nonzero"/><path fill="#242021" d="M 1111.148438 405 C 1111.148438 411.402344 1110.992188 417.800781 1110.679688 424.191406 C 1110.363281 430.585938 1109.894531 436.96875 1109.265625 443.339844 C 1108.636719 449.710938 1107.855469 456.0625 1106.914062 462.394531 C 1105.976562 468.726562 1104.882812 475.03125 1103.632812 481.308594 C 1102.382812 487.585938 1100.980469 493.832031 1099.425781 500.042969 C 1097.871094 506.25 1096.164062 512.417969 1094.304688 518.542969 C 1092.449219 524.671875 1090.441406 530.746094 1088.285156 536.773438 C 1086.128906 542.800781 1083.824219 548.773438 1081.375 554.6875 C 1078.925781 560.601562 1076.332031 566.449219 1073.59375 572.238281 C 1070.855469 578.023438 1067.980469 583.742188 1064.960938 589.386719 C 1061.945312 595.03125 1058.789062 600.601562 1055.5 606.089844 C 1052.207031 611.582031 1048.785156 616.988281 1045.226562 622.3125 C 1041.671875 627.632812 1037.988281 632.867188 1034.171875 638.007812 C 1030.359375 643.148438 1026.421875 648.195312 1022.363281 653.140625 C 1018.300781 658.089844 1014.121094 662.9375 1009.820312 667.679688 C 1005.523438 672.421875 1001.109375 677.058594 996.585938 681.585938 C 992.058594 686.109375 987.421875 690.523438 982.679688 694.824219 C 977.9375 699.121094 973.089844 703.300781 968.140625 707.363281 C 963.195312 711.421875 958.148438 715.359375 953.007812 719.171875 C 947.867188 722.988281 942.632812 726.671875 937.3125 730.226562 C 931.988281 733.785156 926.582031 737.207031 921.089844 740.5 C 915.601562 743.789062 910.03125 746.945312 904.386719 749.960938 C 898.742188 752.980469 893.023438 755.859375 887.238281 758.59375 C 881.449219 761.332031 875.601562 763.925781 869.6875 766.375 C 863.773438 768.824219 857.800781 771.128906 851.773438 773.285156 C 845.746094 775.441406 839.671875 777.449219 833.542969 779.304688 C 827.417969 781.164062 821.25 782.871094 815.042969 784.425781 C 808.832031 785.980469 802.585938 787.382812 796.308594 788.632812 C 790.03125 789.882812 783.726562 790.976562 777.394531 791.914062 C 771.0625 792.855469 764.710938 793.636719 758.339844 794.265625 C 751.96875 794.894531 745.585938 795.363281 739.191406 795.679688 C 732.800781 795.992188 726.402344 796.148438 720 796.148438 C 713.597656 796.148438 707.199219 795.992188 700.808594 795.679688 C 694.414062 795.363281 688.03125 794.894531 681.660156 794.265625 C 675.289062 793.636719 668.9375 792.855469 662.605469 791.914062 C 656.273438 790.976562 649.96875 789.882812 643.691406 788.632812 C 637.414062 787.382812 631.167969 785.980469 624.957031 784.425781 C 618.75 782.871094 612.582031 781.164062 606.457031 779.304688 C 600.328125 777.449219 594.253906 775.441406 588.226562 773.285156 C 582.199219 771.128906 576.226562 768.824219 570.3125 766.375 C 564.398438 763.925781 558.550781 761.332031 552.761719 758.59375 C 546.976562 755.859375 541.257812 752.980469 535.613281 749.960938 C 529.96875 746.945312 524.398438 743.789062 518.910156 740.5 C 513.417969 737.207031 508.011719 733.785156 502.6875 730.226562 C 497.367188 726.671875 492.132812 722.988281 486.992188 719.171875 C 481.851562 715.359375 476.804688 711.421875 471.859375 707.363281 C 466.910156 703.300781 462.0625 699.121094 457.320312 694.824219 C 452.578125 690.523438 447.941406 686.109375 443.414062 681.585938 C 438.890625 677.058594 434.476562 672.421875 430.175781 667.679688 C 425.878906 662.9375 421.699219 658.089844 417.636719 653.140625 C 413.578125 648.195312 409.640625 643.148438 405.824219 638.007812 C 402.011719 632.867188 398.328125 627.632812 394.769531 622.3125 C 391.214844 616.988281 387.792969 611.582031 384.5 606.089844 C 381.210938 600.601562 378.054688 595.03125 375.039062 589.386719 C 372.019531 583.742188 369.140625 578.023438 366.40625 572.238281 C 363.667969 566.449219 361.074219 560.601562 358.625 554.6875 C 356.175781 548.773438 353.871094 542.800781 351.714844 536.773438 C 349.558594 530.746094 347.550781 524.671875 345.695312 518.542969 C 343.835938 512.417969 342.128906 506.25 340.574219 500.042969 C 339.019531 493.832031 337.617188 487.585938 336.367188 481.308594 C 335.117188 475.03125 334.023438 468.726562 333.085938 462.394531 C 332.144531 456.0625 331.363281 449.710938 330.734375 443.339844 C 330.105469 436.96875 329.636719 430.585938 329.320312 424.191406 C 329.007812 417.800781 328.851562 411.402344 328.851562 405 C 328.851562 398.597656 329.007812 392.199219 329.320312 385.808594 C 329.636719 379.414062 330.105469 373.03125 330.734375 366.660156 C 331.363281 360.289062 332.144531 353.9375 333.085938 347.605469 C 334.023438 341.273438 335.117188 334.96875 336.367188 328.691406 C 337.617188 322.414062 339.019531 316.167969 340.574219 309.957031 C 342.128906 303.75 343.835938 297.582031 345.695312 291.457031 C 347.550781 285.328125 349.558594 279.253906 351.714844 273.226562 C 353.871094 267.199219 356.175781 261.226562 358.625 255.3125 C 361.074219 249.398438 363.667969 243.550781 366.40625 237.761719 C 369.140625 231.976562 372.019531 226.257812 375.039062 220.613281 C 378.054688 214.96875 381.210938 209.398438 384.5 203.910156 C 387.792969 198.417969 391.214844 193.011719 394.769531 187.6875 C 398.328125 182.367188 402.011719 177.132812 405.824219 171.992188 C 409.640625 166.851562 413.578125 161.804688 417.636719 156.859375 C 421.699219 151.910156 425.878906 147.0625 430.175781 142.320312 C 434.476562 137.578125 438.890625 132.941406 443.414062 128.414062 C 447.941406 123.890625 452.578125 119.476562 457.320312 115.175781 C 462.0625 110.878906 466.910156 106.699219 471.859375 102.636719 C 476.804688 98.578125 481.851562 94.640625 486.992188 90.828125 C 492.132812 87.011719 497.367188 83.328125 502.6875 79.773438 C 508.011719 76.214844 513.417969 72.792969 518.910156 69.5 C 524.398438 66.210938 529.96875 63.054688 535.613281 60.039062 C 541.257812 57.019531 546.976562 54.140625 552.761719 51.40625 C 558.550781 48.667969 564.398438 46.074219 570.3125 43.625 C 576.226562 41.175781 582.199219 38.871094 588.226562 36.714844 C 594.253906 34.558594 600.328125 32.550781 606.457031 30.695312 C 612.582031 28.835938 618.75 27.128906 624.957031 25.574219 C 631.167969 24.019531 637.414062 22.617188 643.691406 21.367188 C 649.96875 20.117188 656.273438 19.023438 662.605469 18.085938 C 668.9375 17.144531 675.289062 16.363281 681.660156 15.734375 C 688.03125 15.105469 694.414062 14.636719 700.808594 14.320312 C 707.199219 14.007812 713.597656 13.851562 720 13.851562 C 726.402344 13.851562 732.800781 14.007812 739.191406 14.320312 C 745.585938 14.636719 751.96875 15.105469 758.339844 15.734375 C 764.710938 16.363281 771.0625 17.144531 777.394531 18.085938 C 783.726562 19.023438 790.03125 20.117188 796.308594 21.367188 C 802.585938 22.617188 808.832031 24.019531 815.042969 25.574219 C 821.25 27.128906 827.417969 28.835938 833.542969 30.695312 C 839.671875 32.550781 845.746094 34.558594 851.773438 36.714844 C 857.800781 38.871094 863.773438 41.175781 869.6875 43.625 C 875.601562 46.074219 881.449219 48.667969 887.238281 51.40625 C 893.023438 54.140625 898.742188 57.019531 904.386719 60.039062 C 910.03125 63.054688 915.601562 66.210938 921.089844 69.5 C 926.582031 72.792969 931.988281 76.214844 937.3125 79.773438 C 942.632812 83.328125 947.867188 87.011719 953.007812 90.828125 C 958.148438 94.640625 963.195312 98.578125 968.140625 102.636719 C 973.089844 106.699219 977.9375 110.878906 982.679688 115.175781 C 987.421875 119.476562 992.058594 123.890625 996.585938 128.414062 C 1001.109375 132.941406 1005.523438 137.578125 1009.820312 142.320312 C 1014.121094 147.0625 1018.300781 151.910156 1022.363281 156.859375 C 1026.421875 161.804688 1030.359375 166.851562 1034.171875 171.992188 C 1037.988281 177.132812 1041.671875 182.367188 1045.226562 187.6875 C 1048.785156 193.011719 1052.207031 198.417969 1055.5 203.910156 C 1058.789062 209.398438 1061.945312 214.96875 1064.960938 220.613281 C 1067.980469 226.257812 1070.855469 231.976562 1073.59375 237.761719 C 1076.332031 243.550781 1078.925781 249.398438 1081.375 255.3125 C 1083.824219 261.226562 1086.128906 267.199219 1088.285156 273.226562 C 1090.441406 279.253906 1092.449219 285.328125 1094.304688 291.457031 C 1096.164062 297.582031 1097.871094 303.75 1099.425781 309.957031 C 1100.980469 316.167969 1102.382812 322.414062 1103.632812 328.691406 C 1104.882812 334.96875 1105.976562 341.273438 1106.914062 347.605469 C 1107.855469 353.9375 1108.636719 360.289062 1109.265625 366.660156 C 1109.894531 373.03125 1110.363281 379.414062 1110.679688 385.808594 C 1110.992188 392.199219 1111.148438 398.597656 1111.148438 405 Z M 1111.148438 405 " fill-opacity="1" fill-rule="nonzero"/><path fill="#000000" d="M 720 13.363281 C 828.136719 13.363281 926.0625 57.1875 996.9375 128.0625 C 1067.8125 198.9375 1111.636719 296.863281 1111.636719 405 C 1111.636719 513.136719 1067.8125 611.0625 996.9375 681.9375 C 926.0625 752.8125 828.136719 796.636719 720 796.636719 C 611.863281 796.636719 513.9375 752.8125 443.0625 681.9375 C 372.1875 611.0625 328.363281 513.136719 328.363281 405 C 328.363281 296.863281 372.1875 198.9375 443.0625 128.0625 C 513.9375 57.1875 611.863281 13.363281 720 13.363281 Z M 996.289062 128.710938 C 925.578125 57.996094 827.890625 14.257812 720 14.257812 C 612.109375 14.257812 514.421875 57.996094 443.710938 128.710938 C 372.996094 199.421875 329.257812 297.109375 329.257812 405 C 329.257812 512.890625 372.996094 610.578125 443.710938 681.289062 C 514.421875 752.003906 612.109375 795.742188 720 795.742188 C 827.890625 795.742188 925.578125 752.003906 996.289062 681.289062 C 1067.003906 610.578125 1110.742188 512.890625 1110.742188 405 C 1110.742188 297.109375 1067.003906 199.421875 996.289062 128.710938 Z M 996.289062 128.710938 " fill-opacity="1" fill-rule="nonzero"/><path fill="#5271ff" d="M 720 46.738281 C 818.902344 46.738281 908.488281 86.832031 973.285156 151.714844 C 1038.167969 216.511719 1078.261719 306.097656 1078.261719 405 C 1078.261719 503.902344 1038.167969 593.488281 973.285156 658.285156 C 908.488281 723.167969 818.902344 763.261719 720 763.261719 C 621.097656 763.261719 531.511719 723.167969 466.714844 658.285156 C 401.832031 593.488281 361.738281 503.902344 361.738281 405 C 361.738281 306.097656 401.832031 216.511719 466.714844 151.714844 C 531.511719 86.832031 621.097656 46.738281 720 46.738281 Z M 967.292969 157.707031 C 904.03125 94.445312 816.550781 55.242188 720 55.242188 C 623.449219 55.242188 535.96875 94.445312 472.707031 157.707031 C 409.445312 220.96875 370.242188 308.449219 370.242188 405 C 370.242188 501.550781 409.445312 589.03125 472.707031 652.292969 C 535.96875 715.554688 623.449219 754.757812 720 754.757812 C 816.550781 754.757812 904.03125 715.554688 967.292969 652.292969 C 1030.554688 589.03125 1069.757812 501.550781 1069.757812 405 C 1069.757812 308.449219 1030.554688 220.96875 967.292969 157.707031 Z M 967.292969 157.707031 " fill-opacity="1" fill-rule="nonzero"/><path fill="#5271ff" d="M 720 277.425781 C 755.234375 277.425781 787.148438 291.679688 810.234375 314.765625 C 833.320312 337.851562 847.574219 369.765625 847.574219 405 C 847.574219 440.234375 833.320312 472.148438 810.234375 495.234375 C 787.148438 518.320312 755.234375 532.574219 720 532.574219 C 684.765625 532.574219 652.851562 518.320312 629.765625 495.234375 C 606.679688 472.148438 592.425781 440.234375 592.425781 405 C 592.425781 369.765625 606.679688 337.851562 629.765625 314.765625 C 652.851562 291.679688 684.765625 277.425781 720 277.425781 Z M 804.160156 320.839844 C 782.613281 299.296875 752.886719 285.929688 720 285.929688 C 687.113281 285.929688 657.386719 299.296875 635.839844 320.839844 C 614.296875 342.386719 600.929688 372.113281 600.929688 405 C 600.929688 437.886719 614.296875 467.613281 635.839844 489.160156 C 657.386719 510.703125 687.113281 524.070312 720 524.070312 C 752.886719 524.070312 782.613281 510.703125 804.160156 489.160156 C 825.703125 467.613281 839.070312 437.886719 839.070312 405 C 839.070312 372.113281 825.703125 342.386719 804.160156 320.839844 Z M 804.160156 320.839844 " fill-opacity="1" fill-rule="nonzero"/><path fill="#ffc764" d="M 812.503906 405 C 812.5 406.515625 812.464844 408.027344 812.390625 409.539062 C 812.316406 411.050781 812.203125 412.558594 812.054688 414.066406 C 811.90625 415.574219 811.722656 417.074219 811.5 418.574219 C 811.277344 420.070312 811.019531 421.5625 810.722656 423.046875 C 810.429688 424.53125 810.097656 426.007812 809.730469 427.476562 C 809.363281 428.945312 808.957031 430.402344 808.519531 431.851562 C 808.078125 433.300781 807.605469 434.738281 807.09375 436.164062 C 806.585938 437.589844 806.039062 439 805.460938 440.398438 C 804.882812 441.796875 804.269531 443.179688 803.621094 444.550781 C 802.972656 445.917969 802.292969 447.269531 801.578125 448.605469 C 800.867188 449.941406 800.121094 451.257812 799.339844 452.554688 C 798.5625 453.855469 797.753906 455.132812 796.914062 456.390625 C 796.070312 457.648438 795.199219 458.886719 794.296875 460.101562 C 793.394531 461.320312 792.464844 462.511719 791.503906 463.683594 C 790.542969 464.851562 789.554688 466 788.539062 467.121094 C 787.523438 468.242188 786.480469 469.339844 785.410156 470.410156 C 784.339844 471.480469 783.242188 472.523438 782.121094 473.539062 C 781 474.554688 779.851562 475.542969 778.683594 476.503906 C 777.511719 477.464844 776.320312 478.398438 775.101562 479.296875 C 773.886719 480.199219 772.648438 481.070312 771.390625 481.914062 C 770.132812 482.753906 768.855469 483.5625 767.554688 484.339844 C 766.257812 485.121094 764.941406 485.867188 763.605469 486.578125 C 762.269531 487.292969 760.917969 487.972656 759.550781 488.621094 C 758.179688 489.269531 756.796875 489.882812 755.398438 490.460938 C 754 491.039062 752.589844 491.585938 751.164062 492.09375 C 749.738281 492.605469 748.300781 493.078125 746.851562 493.519531 C 745.402344 493.957031 743.945312 494.363281 742.476562 494.730469 C 741.007812 495.097656 739.53125 495.429688 738.046875 495.722656 C 736.5625 496.019531 735.070312 496.277344 733.574219 496.5 C 732.074219 496.722656 730.574219 496.90625 729.066406 497.054688 C 727.558594 497.203125 726.050781 497.316406 724.539062 497.390625 C 723.027344 497.464844 721.515625 497.503906 720 497.503906 C 718.484375 497.503906 716.972656 497.464844 715.460938 497.390625 C 713.949219 497.316406 712.441406 497.203125 710.933594 497.054688 C 709.425781 496.90625 707.925781 496.722656 706.425781 496.5 C 704.929688 496.277344 703.4375 496.019531 701.953125 495.722656 C 700.46875 495.429688 698.992188 495.097656 697.523438 494.730469 C 696.054688 494.363281 694.597656 493.957031 693.148438 493.519531 C 691.699219 493.078125 690.261719 492.605469 688.835938 492.09375 C 687.410156 491.585938 686 491.039062 684.601562 490.460938 C 683.203125 489.882812 681.820312 489.269531 680.449219 488.621094 C 679.082031 487.972656 677.730469 487.292969 676.394531 486.578125 C 675.058594 485.867188 673.742188 485.121094 672.445312 484.339844 C 671.144531 483.5625 669.867188 482.753906 668.609375 481.914062 C 667.351562 481.070312 666.113281 480.199219 664.898438 479.296875 C 663.679688 478.398438 662.488281 477.464844 661.316406 476.503906 C 660.148438 475.542969 659 474.554688 657.878906 473.539062 C 656.757812 472.523438 655.660156 471.480469 654.589844 470.410156 C 653.519531 469.339844 652.476562 468.242188 651.460938 467.121094 C 650.445312 466 649.457031 464.851562 648.496094 463.683594 C 647.535156 462.511719 646.601562 461.320312 645.703125 460.101562 C 644.800781 458.886719 643.929688 457.648438 643.085938 456.390625 C 642.246094 455.132812 641.4375 453.855469 640.660156 452.554688 C 639.878906 451.257812 639.132812 449.941406 638.421875 448.605469 C 637.707031 447.269531 637.027344 445.917969 636.378906 444.550781 C 635.730469 443.179688 635.117188 441.796875 634.539062 440.398438 C 633.960938 439 633.414062 437.589844 632.90625 436.164062 C 632.394531 434.738281 631.921875 433.300781 631.480469 431.851562 C 631.042969 430.402344 630.636719 428.945312 630.269531 427.476562 C 629.902344 426.007812 629.570312 424.53125 629.273438 423.046875 C 628.980469 421.5625 628.722656 420.070312 628.5 418.574219 C 628.277344 417.074219 628.089844 415.574219 627.945312 414.066406 C 627.796875 412.558594 627.683594 411.050781 627.609375 409.539062 C 627.535156 408.027344 627.496094 406.515625 627.496094 405 C 627.496094 403.484375 627.535156 401.972656 627.609375 400.460938 C 627.683594 398.949219 627.796875 397.441406 627.945312 395.933594 C 628.089844 394.425781 628.277344 392.925781 628.5 391.425781 C 628.722656 389.929688 628.980469 388.4375 629.273438 386.953125 C 629.570312 385.46875 629.902344 383.992188 630.269531 382.523438 C 630.636719 381.054688 631.042969 379.597656 631.480469 378.148438 C 631.921875 376.699219 632.394531 375.261719 632.90625 373.835938 C 633.414062 372.410156 633.960938 371 634.539062 369.601562 C 635.117188 368.203125 635.730469 366.820312 636.378906 365.449219 C 637.027344 364.082031 637.707031 362.730469 638.421875 361.394531 C 639.132812 360.058594 639.878906 358.742188 640.660156 357.445312 C 641.4375 356.144531 642.246094 354.867188 643.085938 353.609375 C 643.929688 352.351562 644.800781 351.113281 645.703125 349.898438 C 646.601562 348.679688 647.535156 347.488281 648.496094 346.316406 C 649.457031 345.148438 650.445312 344 651.460938 342.878906 C 652.476562 341.757812 653.519531 340.660156 654.589844 339.589844 C 655.660156 338.519531 656.757812 337.476562 657.878906 336.460938 C 659 335.445312 660.148438 334.457031 661.316406 333.496094 C 662.488281 332.535156 663.679688 331.601562 664.898438 330.703125 C 666.113281 329.800781 667.351562 328.929688 668.609375 328.085938 C 669.867188 327.246094 671.144531 326.4375 672.445312 325.660156 C 673.742188 324.878906 675.058594 324.132812 676.394531 323.421875 C 677.730469 322.707031 679.082031 322.027344 680.449219 321.378906 C 681.820312 320.730469 683.203125 320.117188 684.601562 319.539062 C 686 318.960938 687.410156 318.414062 688.835938 317.90625 C 690.261719 317.394531 691.699219 316.921875 693.148438 316.480469 C 694.597656 316.042969 696.054688 315.636719 697.523438 315.269531 C 698.992188 314.902344 700.46875 314.570312 701.953125 314.273438 C 703.4375 313.980469 704.929688 313.722656 706.425781 313.5 C 707.925781 313.277344 709.425781 313.09375 710.933594 312.945312 C 712.441406 312.796875 713.949219 312.683594 715.460938 312.609375 C 716.972656 312.535156 718.484375 312.496094 720 312.496094 C 721.515625 312.496094 723.027344 312.535156 724.539062 312.609375 C 726.050781 312.683594 727.558594 312.796875 729.066406 312.945312 C 730.574219 313.09375 732.074219 313.277344 733.574219 313.5 C 735.070312 313.722656 736.5625 313.980469 738.046875 314.273438 C 739.53125 314.570312 741.007812 314.902344 742.476562 315.269531 C 743.945312 315.636719 745.402344 316.042969 746.851562 316.480469 C 748.300781 316.921875 749.738281 317.394531 751.164062 317.90625 C 752.589844 318.414062 754 318.960938 755.398438 319.539062 C 756.796875 320.117188 758.179688 320.730469 759.550781 321.378906 C 760.917969 322.027344 762.269531 322.707031 763.605469 323.421875 C 764.941406 324.132812 766.257812 324.878906 767.554688 325.660156 C 768.855469 326.4375 770.132812 327.246094 771.390625 328.085938 C 772.648438 328.929688 773.886719 329.800781 775.101562 330.703125 C 776.320312 331.601562 777.511719 332.535156 778.683594 333.496094 C 779.851562 334.457031 781 335.445312 782.121094 336.460938 C 783.242188 337.476562 784.339844 338.519531 785.410156 339.589844 C 786.480469 340.660156 787.523438 341.757812 788.539062 342.878906 C 789.554688 344 790.542969 345.148438 791.503906 346.316406 C 792.464844 347.488281 793.398438 348.679688 794.296875 349.898438 C 795.199219 351.113281 796.070312 352.351562 796.914062 353.609375 C 797.753906 354.867188 798.5625 356.144531 799.339844 357.445312 C 800.121094 358.742188 800.867188 360.058594 801.578125 361.394531 C 802.292969 362.730469 802.972656 364.082031 803.621094 365.449219 C 804.269531 366.820312 804.882812 368.203125 805.460938 369.601562 C 806.039062 371 806.585938 372.410156 807.09375 373.835938 C 807.605469 375.261719 808.078125 376.699219 808.519531 378.148438 C 808.957031 379.597656 809.363281 381.054688 809.730469 382.523438 C 810.097656 383.992188 810.429688 385.46875 810.722656 386.953125 C 811.019531 388.4375 811.277344 389.929688 811.5 391.425781 C 811.722656 392.925781 811.90625 394.425781 812.054688 395.933594 C 812.203125 397.441406 812.316406 398.949219 812.390625 400.460938 C 812.464844 401.972656 812.5 403.484375 812.503906 405 Z M 812.503906 405 " fill-opacity="1" fill-rule="nonzero"/><path fill="#5271ff" d="M 734.902344 405 C 734.902344 405.980469 734.808594 406.949219 734.617188 407.90625 C 734.425781 408.867188 734.144531 409.800781 733.769531 410.703125 C 733.394531 411.609375 732.9375 412.464844 732.390625 413.28125 C 731.847656 414.09375 731.230469 414.847656 730.539062 415.539062 C 729.847656 416.230469 729.09375 416.847656 728.28125 417.390625 C 727.464844 417.9375 726.609375 418.394531 725.703125 418.769531 C 724.800781 419.144531 723.867188 419.425781 722.90625 419.617188 C 721.949219 419.808594 720.980469 419.902344 720 419.902344 C 719.019531 419.902344 718.050781 419.808594 717.09375 419.617188 C 716.132812 419.425781 715.199219 419.144531 714.296875 418.769531 C 713.390625 418.394531 712.535156 417.9375 711.71875 417.390625 C 710.90625 416.847656 710.152344 416.230469 709.460938 415.539062 C 708.769531 414.847656 708.152344 414.09375 707.609375 413.28125 C 707.0625 412.464844 706.605469 411.609375 706.230469 410.703125 C 705.855469 409.800781 705.574219 408.867188 705.382812 407.90625 C 705.191406 406.949219 705.097656 405.980469 705.097656 405 C 705.097656 404.019531 705.191406 403.050781 705.382812 402.09375 C 705.574219 401.132812 705.855469 400.199219 706.230469 399.296875 C 706.605469 398.390625 707.0625 397.535156 707.609375 396.71875 C 708.152344 395.90625 708.769531 395.152344 709.460938 394.460938 C 710.152344 393.769531 710.90625 393.152344 711.71875 392.609375 C 712.535156 392.0625 713.390625 391.605469 714.296875 391.230469 C 715.199219 390.855469 716.132812 390.574219 717.09375 390.382812 C 718.050781 390.191406 719.019531 390.097656 720 390.097656 C 720.980469 390.097656 721.949219 390.191406 722.90625 390.382812 C 723.867188 390.574219 724.800781 390.855469 725.703125 391.230469 C 726.609375 391.605469 727.464844 392.0625 728.28125 392.609375 C 729.09375 393.152344 729.847656 393.769531 730.539062 394.460938 C 731.230469 395.152344 731.847656 395.90625 732.390625 396.71875 C 732.9375 397.535156 733.394531 398.390625 733.769531 399.296875 C 734.144531 400.199219 734.425781 401.132812 734.617188 402.09375 C 734.808594 403.050781 734.902344 404.019531 734.902344 405 Z M 734.902344 405 " fill-opacity="1" fill-rule="nonzero"/><path fill="#5271ff" d="M 919.90625 145.394531 C 967.617188 182.167969 1002.042969 224.773438 1015.40625 259.765625 C 1009.574219 225.828125 975.394531 179.089844 924.28125 139.644531 C 873.171875 100.195312 819.226562 79.054688 784.960938 82.054688 C 822.140625 86.101562 872.117188 108.539062 919.90625 145.394531 Z M 919.90625 145.394531 " fill-opacity="1" fill-rule="evenodd"/><path fill="#5271ff" d="M 913.429688 153.738281 C 960.082031 189.703125 993.535156 231.578125 1006.335938 266.003906 C 1000.988281 232.550781 967.777344 186.542969 917.882812 147.988281 C 867.90625 109.511719 814.933594 89.101562 781.15625 92.421875 C 817.765625 96.066406 866.773438 117.691406 913.429688 153.738281 Z M 913.429688 153.738281 " fill-opacity="1" fill-rule="evenodd"/><path fill="#5271ff" d="M 907.027344 162.082031 C 952.550781 197.152344 985.03125 238.300781 997.261719 272.320312 C 992.402344 239.191406 960.246094 193.996094 911.402344 156.328125 C 862.640625 118.746094 810.71875 99.0625 777.429688 102.789062 C 813.394531 105.949219 861.425781 126.925781 907.027344 162.082031 Z M 907.027344 162.082031 " fill-opacity="1" fill-rule="evenodd"/><path fill="#5271ff" d="M 900.550781 170.425781 C 945.097656 204.6875 976.527344 245.023438 988.191406 278.640625 C 983.734375 245.835938 952.632812 201.367188 905.003906 164.671875 C 857.375 127.980469 806.507812 109.105469 773.621094 113.15625 C 809.019531 115.910156 856.078125 136.078125 900.550781 170.425781 Z M 900.550781 170.425781 " fill-opacity="1" fill-rule="evenodd"/><path fill="#5271ff" d="M 894.148438 178.6875 C 937.566406 212.140625 968.101562 251.828125 979.117188 284.957031 C 975.148438 252.476562 945.019531 208.816406 898.523438 173.015625 C 852.109375 137.214844 802.214844 119.152344 769.816406 123.523438 C 804.644531 125.792969 850.816406 145.3125 894.148438 178.6875 Z M 894.148438 178.6875 " fill-opacity="1" fill-rule="evenodd"/><path fill="#5271ff" d="M 887.75 187.027344 C 930.03125 219.671875 959.597656 258.550781 970.046875 291.277344 C 966.5625 259.117188 937.402344 216.269531 892.125 181.359375 C 846.847656 146.449219 798.003906 129.113281 766.007812 133.894531 C 800.269531 135.757812 845.46875 154.46875 887.75 187.027344 Z M 887.75 187.027344 " fill-opacity="1" fill-rule="evenodd"/><path fill="#5271ff" d="M 881.269531 195.371094 C 922.5 227.125 951.09375 265.273438 960.976562 297.511719 C 957.976562 265.761719 929.789062 223.722656 885.726562 189.703125 C 841.582031 155.683594 793.710938 139.15625 762.199219 144.261719 C 795.976562 145.71875 840.121094 163.621094 881.269531 195.371094 Z M 881.269531 195.371094 " fill-opacity="1" fill-rule="evenodd"/><path fill="#5271ff" d="M 874.871094 203.714844 C 914.96875 234.65625 942.589844 272.078125 951.984375 303.832031 C 949.3125 272.484375 922.175781 231.09375 879.246094 198.046875 C 836.316406 164.917969 789.496094 149.203125 758.476562 154.628906 C 791.605469 155.601562 834.777344 172.855469 874.871094 203.714844 Z M 874.871094 203.714844 " fill-opacity="1" fill-rule="evenodd"/><path fill="#5271ff" d="M 868.472656 212.058594 C 907.433594 242.191406 934.082031 278.800781 942.910156 310.148438 C 940.726562 279.125 914.644531 238.546875 872.847656 206.386719 C 831.050781 174.148438 785.203125 159.246094 754.667969 164.996094 C 787.230469 165.5625 829.429688 182.007812 868.472656 212.058594 Z M 868.472656 212.058594 " fill-opacity="1" fill-rule="evenodd"/><path fill="#5271ff" d="M 861.992188 220.402344 C 899.902344 249.640625 925.660156 285.523438 933.839844 316.46875 C 932.140625 285.769531 907.027344 245.996094 866.449219 214.730469 C 825.785156 183.382812 780.992188 169.210938 750.859375 175.363281 C 782.855469 175.445312 824.085938 191.160156 861.992188 220.402344 Z M 861.992188 220.402344 " fill-opacity="1" fill-rule="evenodd"/><path fill="#5271ff" d="M 855.59375 228.742188 C 892.367188 257.175781 917.152344 292.328125 924.769531 322.785156 C 923.472656 292.410156 899.414062 253.449219 859.96875 223.074219 C 820.601562 192.617188 776.699219 179.253906 747.054688 185.734375 C 778.480469 185.410156 818.738281 200.394531 855.59375 228.742188 Z M 855.59375 228.742188 " fill-opacity="1" fill-rule="evenodd"/><path fill="#5271ff" d="M 849.195312 237.085938 C 884.914062 264.628906 908.648438 299.050781 915.695312 329.023438 C 914.886719 299.050781 891.800781 260.902344 853.570312 231.335938 C 815.335938 201.851562 772.488281 189.296875 743.328125 196.183594 C 774.109375 195.292969 813.394531 209.546875 849.195312 237.085938 Z M 849.195312 237.085938 " fill-opacity="1" fill-rule="evenodd"/><path fill="#5271ff" d="M 842.714844 245.429688 C 877.382812 272.160156 900.144531 305.773438 906.625 335.339844 C 906.300781 305.773438 884.1875 268.273438 847.171875 239.679688 C 810.070312 211.085938 768.277344 199.261719 739.519531 206.550781 C 769.734375 205.253906 808.128906 218.699219 842.714844 245.429688 Z M 842.714844 245.429688 " fill-opacity="1" fill-rule="evenodd"/><path fill="#5271ff" d="M 836.316406 253.773438 C 869.851562 279.613281 891.640625 312.578125 897.550781 341.65625 C 897.714844 312.417969 876.574219 275.722656 840.691406 248.023438 C 804.808594 220.402344 763.984375 209.304688 735.714844 216.917969 C 765.359375 215.136719 802.78125 227.933594 836.316406 253.773438 Z M 836.316406 253.773438 " fill-opacity="1" fill-rule="evenodd"/><path fill="#5271ff" d="M 829.835938 262.117188 C 862.316406 287.144531 883.214844 319.300781 888.480469 347.976562 C 889.046875 319.058594 869.039062 283.175781 834.289062 256.363281 C 799.542969 229.636719 759.769531 219.347656 731.90625 227.285156 C 760.984375 225.097656 797.4375 237.085938 829.835938 262.117188 Z M 829.835938 262.117188 " fill-opacity="1" fill-rule="evenodd"/><path fill="#5271ff" d="M 823.4375 270.460938 C 854.785156 294.597656 874.710938 326.023438 879.40625 354.292969 C 880.460938 325.699219 861.425781 290.628906 827.8125 264.707031 C 794.277344 238.867188 755.476562 229.3125 728.101562 237.652344 C 756.613281 234.980469 792.089844 246.238281 823.4375 270.460938 Z M 823.4375 270.460938 " fill-opacity="1" fill-rule="evenodd"/><path fill="#5271ff" d="M 817.039062 278.800781 C 847.25 302.128906 866.203125 332.828125 870.335938 360.613281 C 871.875 332.34375 853.8125 298 821.410156 273.050781 C 789.011719 248.101562 751.265625 239.355469 724.375 248.023438 C 752.238281 244.945312 786.742188 255.472656 817.039062 278.800781 Z M 817.039062 278.800781 " fill-opacity="1" fill-rule="evenodd"/><path fill="#5271ff" d="M 810.558594 287.144531 C 839.71875 309.582031 857.699219 339.550781 861.265625 366.847656 C 863.207031 338.984375 846.199219 305.449219 815.011719 281.394531 C 783.746094 257.335938 746.972656 249.398438 720.566406 258.390625 C 747.863281 254.90625 781.398438 264.628906 810.558594 287.144531 Z M 810.558594 287.144531 " fill-opacity="1" fill-rule="evenodd"/><path fill="#5271ff" d="M 804.160156 295.488281 C 832.183594 317.113281 849.195312 346.273438 852.191406 373.167969 C 854.621094 345.707031 838.582031 312.902344 808.53125 289.738281 C 778.480469 266.570312 742.761719 259.363281 716.761719 268.757812 C 743.488281 264.789062 776.050781 273.78125 804.160156 295.488281 Z M 804.160156 295.488281 " fill-opacity="1" fill-rule="evenodd"/><path fill="#5271ff" d="M 522.765625 664.765625 C 474.652344 628.316406 439.984375 586.035156 426.292969 551.203125 C 432.367188 585.0625 466.957031 631.476562 518.390625 670.519531 C 569.824219 709.558594 623.933594 730.296875 658.117188 726.976562 C 620.9375 723.25 570.796875 701.21875 522.765625 664.765625 Z M 522.765625 664.765625 " fill-opacity="1" fill-rule="evenodd"/><path fill="#5271ff" d="M 529.082031 656.425781 C 482.183594 620.785156 448.40625 579.230469 435.285156 544.804688 C 440.875 578.257812 474.488281 624.023438 524.710938 662.175781 C 575.011719 700.246094 628.066406 720.253906 661.84375 716.605469 C 625.230469 713.285156 576.0625 691.984375 529.082031 656.425781 Z M 529.082031 656.425781 " fill-opacity="1" fill-rule="evenodd"/><path fill="#5271ff" d="M 535.480469 648 C 489.636719 613.25 456.832031 572.347656 444.277344 538.488281 C 449.460938 571.535156 482.023438 616.492188 531.109375 653.75 C 580.195312 691.011719 632.277344 710.207031 665.566406 706.238281 C 629.523438 703.324219 581.328125 682.75 535.480469 648 Z M 535.480469 648 " fill-opacity="1" fill-rule="evenodd"/><path fill="#5271ff" d="M 541.800781 639.574219 C 497.089844 605.71875 465.253906 565.542969 453.347656 532.089844 C 458.046875 564.8125 489.554688 609.039062 537.425781 645.328125 C 585.378906 681.695312 636.40625 700.082031 669.292969 695.789062 C 633.816406 693.359375 586.59375 673.515625 541.800781 639.574219 Z M 541.800781 639.574219 " fill-opacity="1" fill-rule="evenodd"/><path fill="#5271ff" d="M 548.199219 631.234375 C 504.539062 598.105469 473.679688 558.738281 462.339844 525.691406 C 466.550781 558.089844 497.089844 601.507812 543.824219 636.984375 C 590.5625 672.382812 640.621094 690.039062 672.9375 685.421875 C 638.109375 683.398438 591.859375 664.28125 548.199219 631.234375 Z M 548.199219 631.234375 " fill-opacity="1" fill-rule="evenodd"/><path fill="#5271ff" d="M 554.515625 622.808594 C 511.992188 590.570312 482.101562 551.933594 471.328125 519.289062 C 475.136719 551.367188 504.621094 594.054688 550.222656 628.558594 C 595.746094 663.148438 644.75 679.996094 676.664062 674.972656 C 642.402344 673.433594 597.121094 655.128906 554.515625 622.808594 Z M 554.515625 622.808594 " fill-opacity="1" fill-rule="evenodd"/><path fill="#5271ff" d="M 560.914062 614.464844 C 519.445312 583.039062 490.527344 545.128906 480.320312 512.972656 C 483.722656 544.644531 512.152344 586.519531 556.542969 620.21875 C 600.929688 653.832031 648.964844 669.949219 680.390625 664.605469 C 646.695312 663.472656 602.386719 645.894531 560.914062 614.464844 Z M 560.914062 614.464844 " fill-opacity="1" fill-rule="evenodd"/><path fill="#5271ff" d="M 567.234375 606.042969 C 526.894531 575.425781 498.949219 538.246094 489.394531 506.574219 C 492.226562 537.921875 519.6875 579.070312 562.941406 611.792969 C 606.113281 644.515625 653.09375 659.90625 684.117188 654.15625 C 650.988281 653.507812 607.652344 636.660156 567.234375 606.042969 Z M 567.234375 606.042969 " fill-opacity="1" fill-rule="evenodd"/><path fill="#5271ff" d="M 573.632812 597.699219 C 534.347656 567.890625 507.457031 531.441406 498.382812 500.175781 C 500.8125 531.199219 527.21875 571.535156 569.257812 603.449219 C 611.296875 635.28125 657.304688 649.863281 687.761719 643.789062 C 655.199219 643.546875 612.835938 627.425781 573.632812 597.699219 Z M 573.632812 597.699219 " fill-opacity="1" fill-rule="evenodd"/><path fill="#5271ff" d="M 579.949219 589.273438 C 541.800781 560.359375 515.878906 524.636719 507.375 493.855469 C 509.320312 524.476562 534.753906 564.085938 575.65625 595.027344 C 616.480469 625.96875 661.4375 639.820312 691.488281 633.421875 C 659.492188 633.582031 618.101562 618.191406 579.949219 589.273438 Z M 579.949219 589.273438 " fill-opacity="1" fill-rule="evenodd"/><path fill="#5271ff" d="M 586.351562 580.851562 C 549.332031 552.824219 524.304688 517.832031 516.445312 487.457031 C 517.90625 517.753906 542.285156 556.550781 581.976562 586.601562 C 621.664062 616.734375 665.566406 629.773438 695.214844 622.972656 C 663.785156 623.617188 623.367188 608.957031 586.351562 580.851562 Z M 586.351562 580.851562 " fill-opacity="1" fill-rule="evenodd"/><path fill="#5271ff" d="M 592.667969 572.507812 C 556.785156 545.210938 532.726562 511.027344 525.4375 481.058594 C 526.492188 511.027344 549.820312 549.097656 588.375 578.257812 C 626.851562 607.417969 669.78125 619.730469 698.941406 612.601562 C 668.078125 613.65625 628.632812 599.722656 592.667969 572.507812 Z M 592.667969 572.507812 " fill-opacity="1" fill-rule="evenodd"/><path fill="#5271ff" d="M 599.066406 564.085938 C 564.238281 537.679688 541.152344 504.226562 534.429688 474.660156 C 534.996094 504.304688 557.433594 541.566406 594.691406 569.835938 C 632.035156 598.105469 673.910156 609.605469 702.585938 602.152344 C 672.371094 603.691406 633.898438 590.488281 599.066406 564.085938 Z M 599.066406 564.085938 " fill-opacity="1" fill-rule="evenodd"/><path fill="#5271ff" d="M 605.464844 555.742188 C 571.6875 530.144531 549.574219 497.339844 543.5 468.34375 C 543.582031 497.582031 564.964844 534.03125 601.09375 561.492188 C 637.21875 588.871094 678.121094 599.5625 706.3125 591.785156 C 676.664062 593.730469 639.160156 581.335938 605.464844 555.742188 Z M 605.464844 555.742188 " fill-opacity="1" fill-rule="evenodd"/><path fill="#5271ff" d="M 611.785156 547.316406 C 579.140625 522.613281 558 490.535156 552.492188 461.941406 C 552.085938 490.859375 572.5 526.582031 607.410156 553.066406 C 642.402344 579.554688 682.253906 589.519531 710.035156 581.335938 C 680.957031 583.765625 644.425781 572.101562 611.785156 547.316406 Z M 611.785156 547.316406 " fill-opacity="1" fill-rule="evenodd"/><path fill="#5271ff" d="M 618.183594 538.972656 C 586.59375 514.996094 566.425781 483.730469 561.484375 455.542969 C 560.671875 484.136719 580.03125 519.046875 613.808594 544.726562 C 647.585938 570.320312 686.464844 579.472656 713.683594 570.96875 C 685.25 573.804688 649.691406 562.867188 618.183594 538.972656 Z M 618.183594 538.972656 " fill-opacity="1" fill-rule="evenodd"/><path fill="#5271ff" d="M 624.5 530.550781 C 594.046875 507.464844 574.847656 476.929688 570.554688 449.226562 C 569.257812 477.414062 587.566406 511.597656 620.128906 536.300781 C 652.769531 561.007812 690.597656 569.429688 717.40625 560.601562 C 689.542969 563.839844 654.957031 553.636719 624.5 530.550781 Z M 624.5 530.550781 " fill-opacity="1" fill-rule="evenodd"/><path fill="#5271ff" d="M 630.898438 522.125 C 601.496094 499.933594 583.351562 470.125 579.546875 442.828125 C 577.765625 470.691406 595.097656 504.0625 626.527344 527.878906 C 657.953125 551.691406 694.726562 559.386719 721.132812 550.152344 C 693.835938 553.878906 660.222656 544.402344 630.898438 522.125 Z M 630.898438 522.125 " fill-opacity="1" fill-rule="evenodd"/><path fill="#5271ff" d="M 637.21875 513.78125 C 608.949219 492.316406 591.777344 463.320312 588.535156 436.429688 C 586.351562 463.96875 602.632812 496.609375 632.84375 519.535156 C 663.136719 542.457031 698.941406 549.34375 724.859375 539.785156 C 698.128906 543.914062 665.488281 535.167969 637.21875 513.78125 Z M 637.21875 513.78125 " fill-opacity="1" fill-rule="evenodd"/></svg>