<svg xmlns="http://www.w3.org/2000/svg" xmlns:xlink="http://www.w3.org/1999/xlink" width="1920" zoomAndPan="magnify" viewBox="0 0 1440 809.999993" height="1080" preserveAspectRatio="xMidYMid meet" version="1.0"><defs><g/></defs><g fill="#ffc764" fill-opacity="1"><g transform="translate(49.047122, 720.299876)"><g><path d="M 183.1875 -61.5 C 143.113281 -47.425781 109.972656 -39.257812 83.765625 -37 C 57.554688 -34.738281 35.710938 -39.257812 18.234375 -50.5625 C 0.765625 -61.875 -12.945312 -81.71875 -22.90625 -110.09375 L -32.578125 -137.65625 L -3.015625 -148.03125 L 6.65625 -120.46875 C 22.59375 -75.0625 49.925781 -59.15625 88.65625 -72.75 C 106.019531 -78.84375 118.054688 -89.160156 124.765625 -103.703125 C 131.472656 -118.242188 130.664062 -137.367188 122.34375 -161.078125 L 36.203125 -406.484375 L 227.515625 -473.640625 L 313.65625 -228.234375 C 326.4375 -191.835938 322.992188 -160.25 303.328125 -133.46875 C 283.671875 -106.695312 243.625 -82.707031 183.1875 -61.5 Z M 183.1875 -61.5 "/></g></g></g><g fill="#ece0c4" fill-opacity="1"><g transform="translate(294.475898, 621.624163)"><g><path d="M 191.59375 -25.234375 C 128.207031 -16.003906 81.585938 -18.6875 51.734375 -33.28125 C 21.890625 -47.882812 4.1875 -74.269531 -1.375 -112.4375 L -38.875 -369.8125 L 161.78125 -399.0625 L 199.28125 -141.6875 C 202.90625 -116.832031 211.0625 -99.515625 223.75 -89.734375 C 236.4375 -79.960938 251.878906 -76.40625 270.078125 -79.0625 C 310.703125 -84.976562 327.546875 -111.742188 320.609375 -159.359375 L 283.109375 -416.734375 L 314.09375 -421.25 L 351.59375 -163.875 C 355.9375 -134.125 352.988281 -110.1875 342.75 -92.0625 C 332.519531 -73.945312 315.269531 -59.8125 291 -49.65625 C 266.738281 -39.5 233.601562 -31.359375 191.59375 -25.234375 Z M 191.59375 -25.234375 "/></g></g></g><g fill="#506ef9" fill-opacity="1"><g transform="translate(544.680312, 562.34694)"><g><path d="M 47.171875 -368.84375 L 232.78125 -352.609375 L 200.40625 17.53125 L 14.796875 1.296875 Z M 216.640625 -168.078125 L 319.515625 -345.015625 L 504.046875 -328.875 L 395.375 -152.4375 L 496.53125 43.4375 L 309.875 27.109375 Z M 216.640625 -168.078125 "/></g></g></g><g fill="#ece0c4" fill-opacity="1"><g transform="translate(923.544004, 585.112587)"><g><path d="M 133.90625 -346.90625 L 499.1875 -222.4375 L 489.09375 -192.796875 L 300.671875 -257 L 256.328125 -126.859375 L 348.78125 -95.359375 L 338.5 -65.21875 L 246.046875 -96.71875 L 201.1875 34.921875 L 389.609375 99.125 L 379.34375 129.265625 L 14.0625 4.796875 Z M 133.90625 -346.90625 "/></g></g></g></svg>