<svg xmlns="http://www.w3.org/2000/svg" xmlns:xlink="http://www.w3.org/1999/xlink" width="86" zoomAndPan="magnify" viewBox="0 0 64.5 33.749999" height="45" preserveAspectRatio="xMidYMid meet" version="1.0"><defs><clipPath id="f8c3bd0b9f"><path d="M 2.554688 4 L 63.582031 4 L 63.582031 32 L 2.554688 32 Z M 2.554688 4 " clip-rule="nonzero"/></clipPath></defs><g clip-path="url(#f8c3bd0b9f)"><path fill="#000000" d="M 49.507812 31.507812 C 45.929688 31.507812 42.355469 30.183594 39.632812 27.527344 L 35.527344 23.523438 C 34.585938 22.605469 34.566406 21.097656 35.484375 20.15625 C 36.402344 19.214844 37.910156 19.195312 38.847656 20.113281 L 42.957031 24.117188 C 46.566406 27.640625 52.445312 27.640625 56.058594 24.117188 C 57.789062 22.429688 58.742188 20.191406 58.742188 17.8125 C 58.742188 15.4375 57.789062 13.195312 56.058594 11.507812 C 52.445312 7.988281 46.566406 7.984375 42.957031 11.507812 L 26.53125 27.527344 C 21.085938 32.835938 12.226562 32.835938 6.78125 27.527344 C 4.125 24.9375 2.660156 21.488281 2.660156 17.8125 C 2.660156 14.140625 4.125 10.691406 6.78125 8.101562 C 12.226562 2.792969 21.085938 2.792969 26.53125 8.101562 L 30.636719 12.105469 C 31.578125 13.023438 31.597656 14.53125 30.679688 15.472656 C 29.761719 16.414062 28.253906 16.433594 27.3125 15.515625 L 23.207031 11.507812 C 19.59375 7.988281 13.714844 7.988281 10.105469 11.507812 C 8.375 13.195312 7.421875 15.4375 7.421875 17.8125 C 7.421875 20.191406 8.375 22.433594 10.105469 24.121094 C 13.714844 27.640625 19.59375 27.640625 23.207031 24.121094 L 39.632812 8.101562 C 45.078125 2.792969 53.9375 2.792969 59.382812 8.101562 C 62.039062 10.691406 63.5 14.140625 63.5 17.8125 C 63.5 21.488281 62.039062 24.9375 59.382812 27.527344 C 56.660156 30.183594 53.082031 31.507812 49.507812 31.507812 Z M 49.507812 31.507812 " fill-opacity="1" fill-rule="nonzero"/></g><path fill="#000000" d="M 29.046875 16.222656 L 21.734375 16.222656 C 20.417969 16.222656 19.347656 15.15625 19.347656 13.835938 C 19.347656 12.519531 20.417969 11.449219 21.734375 11.449219 L 26.660156 11.449219 L 26.660156 6.707031 C 26.660156 5.386719 27.730469 4.320312 29.046875 4.320312 C 30.367188 4.320312 31.433594 5.386719 31.433594 6.707031 L 31.433594 13.835938 C 31.433594 15.15625 30.367188 16.222656 29.046875 16.222656 Z M 29.046875 16.222656 " fill-opacity="1" fill-rule="nonzero"/><path fill="#ffc764" d="M 46.949219 28.722656 C 43.375 28.722656 39.796875 27.394531 37.074219 24.738281 L 32.96875 20.734375 C 32.027344 19.816406 32.007812 18.3125 32.925781 17.371094 C 33.84375 16.429688 35.351562 16.410156 36.292969 17.328125 L 40.398438 21.332031 C 44.011719 24.855469 49.890625 24.855469 53.5 21.332031 C 55.230469 19.644531 56.183594 17.40625 56.183594 15.027344 C 56.183594 12.648438 55.230469 10.410156 53.5 8.722656 C 49.890625 5.199219 44.011719 5.199219 40.398438 8.722656 L 23.972656 24.738281 C 18.527344 30.050781 9.667969 30.050781 4.226562 24.738281 C 1.566406 22.148438 0.105469 18.699219 0.105469 15.027344 C 0.105469 11.355469 1.566406 7.90625 4.226562 5.3125 C 9.667969 0.00390625 18.527344 0.00390625 23.972656 5.3125 L 28.082031 9.320312 C 29.019531 10.234375 29.039062 11.742188 28.121094 12.683594 C 27.203125 13.625 25.699219 13.644531 24.757812 12.726562 L 20.648438 8.722656 C 17.039062 5.199219 11.160156 5.199219 7.546875 8.722656 C 5.816406 10.410156 4.863281 12.648438 4.863281 15.027344 C 4.863281 17.40625 5.816406 19.644531 7.546875 21.332031 C 11.160156 24.855469 17.039062 24.855469 20.648438 21.332031 L 37.074219 5.3125 C 42.519531 0.00390625 51.378906 0.00390625 56.824219 5.3125 C 59.480469 7.90625 60.945312 11.355469 60.945312 15.027344 C 60.945312 18.699219 59.480469 22.148438 56.824219 24.738281 C 54.101562 27.394531 50.527344 28.722656 46.949219 28.722656 Z M 46.949219 28.722656 " fill-opacity="1" fill-rule="nonzero"/><path fill="#ffc764" d="M 26.492188 13.4375 L 19.179688 13.4375 C 17.859375 13.4375 16.792969 12.367188 16.792969 11.050781 C 16.792969 9.730469 17.859375 8.664062 19.179688 8.664062 L 24.105469 8.664062 L 24.105469 3.917969 C 24.105469 2.601562 25.171875 1.53125 26.492188 1.53125 C 27.808594 1.53125 28.878906 2.601562 28.878906 3.917969 L 28.878906 11.050781 C 28.878906 12.367188 27.808594 13.4375 26.492188 13.4375 Z M 26.492188 13.4375 " fill-opacity="1" fill-rule="nonzero"/></svg>