<svg version="1.0" preserveAspectRatio="xMidYMid meet" viewBox="0 0 206.28675 223.499994" zoomAndPan="magnify" xmlns:xlink="http://www.w3.org/1999/xlink" xmlns="http://www.w3.org/2000/svg" style="max-height: 500px" width="206.28675" height="223.499994"><defs><clipPath id="970ace8563"><path clip-rule="nonzero" d="M 18.78125 16.90625 L 184 16.90625 L 184 222.589844 L 18.78125 222.589844 Z M 18.78125 16.90625"/></clipPath><clipPath id="e5ffec2c03"><path clip-rule="nonzero" d="M 234 17 L 305 17 L 305 222.589844 L 234 222.589844 Z M 234 17"/></clipPath><clipPath id="7cfd3eb990"><path clip-rule="nonzero" d="M 337 17 L 407.839844 17 L 407.839844 222.589844 L 337 222.589844 Z M 337 17"/></clipPath><clipPath id="62759c292d"><path clip-rule="nonzero" d="M 2.960938 0 L 169 0 L 169 205.683594 L 2.960938 205.683594 Z M 2.960938 0"/></clipPath><clipPath id="873e1e37b0"><path clip-rule="nonzero" d="M 218 0 L 289 0 L 289 205.683594 L 218 205.683594 Z M 218 0"/></clipPath><clipPath id="2f88b2d1cf"><path clip-rule="nonzero" d="M 321 0 L 392.019531 0 L 392.019531 205.683594 L 321 205.683594 Z M 321 0"/></clipPath></defs><g clip-path="url(#970ace8563)"><path fill-rule="nonzero" fill-opacity="1" d="M 176.835938 132.785156 L 42.164062 220.242188 C 31.699219 226.941406 18.78125 218.515625 18.78125 205.113281 L 18.78125 34.417969 C 18.78125 20.875 31.699219 12.449219 42.164062 19.324219 L 176.835938 106.742188 C 186.335938 112.820312 186.335938 126.535156 176.835938 132.785156" fill="#000000"/></g><g clip-path="url(#e5ffec2c03)"><path fill-rule="nonzero" fill-opacity="1" d="M 289.226562 222.554688 L 249.609375 222.554688 C 241.078125 222.554688 234.035156 215.542969 234.035156 206.976562 L 234.035156 33.347656 C 234.035156 24.746094 241.078125 17.734375 249.609375 17.734375 L 289.226562 17.734375 C 297.792969 17.734375 304.804688 24.746094 304.804688 33.347656 L 304.804688 206.976562 C 304.804688 215.542969 297.96875 222.554688 289.226562 222.554688" fill="#000000"/></g><g clip-path="url(#7cfd3eb990)"><path fill-rule="nonzero" fill-opacity="1" d="M 392.226562 222.554688 L 352.679688 222.554688 C 344.078125 222.554688 337.066406 215.542969 337.066406 206.976562 L 337.066406 33.347656 C 337.066406 24.746094 344.078125 17.734375 352.679688 17.734375 L 392.261719 17.734375 C 400.828125 17.734375 407.839844 24.746094 407.839844 33.347656 L 407.839844 206.976562 C 407.839844 215.542969 400.828125 222.554688 392.226562 222.554688" fill="#000000"/></g><g clip-path="url(#62759c292d)"><path fill-rule="nonzero" fill-opacity="1" d="M 161.015625 115.882812 L 26.34375 203.335938 C 15.878906 210.035156 2.960938 201.609375 2.960938 188.207031 L 2.960938 17.511719 C 2.960938 3.972656 15.878906 -4.457031 26.34375 2.417969 L 161.015625 89.839844 C 170.515625 95.917969 170.515625 109.628906 161.015625 115.882812" fill="#ffc764"/></g><g clip-path="url(#873e1e37b0)"><path fill-rule="nonzero" fill-opacity="1" d="M 273.40625 205.652344 L 233.789062 205.652344 C 225.257812 205.652344 218.214844 198.640625 218.214844 190.074219 L 218.214844 16.441406 C 218.214844 7.839844 225.257812 0.828125 233.789062 0.828125 L 273.40625 0.828125 C 281.972656 0.828125 288.984375 7.839844 288.984375 16.441406 L 288.984375 190.074219 C 288.984375 198.640625 282.148438 205.652344 273.40625 205.652344" fill="#ffc764"/></g><g clip-path="url(#2f88b2d1cf)"><path fill-rule="nonzero" fill-opacity="1" d="M 376.40625 205.652344 L 336.859375 205.652344 C 328.257812 205.652344 321.246094 198.640625 321.246094 190.074219 L 321.246094 16.441406 C 321.246094 7.839844 328.257812 0.828125 336.859375 0.828125 L 376.441406 0.828125 C 385.007812 0.828125 392.019531 7.839844 392.019531 16.441406 L 392.019531 190.074219 C 392.019531 198.640625 385.007812 205.652344 376.40625 205.652344" fill="#ffc764"/></g></svg>