<svg xmlns="http://www.w3.org/2000/svg" xmlns:xlink="http://www.w3.org/1999/xlink" width="83" zoomAndPan="magnify" viewBox="0 0 62.25 50.999998" height="68" preserveAspectRatio="xMidYMid meet" version="1.0"><defs><clipPath id="7b17058eb7"><path d="M 3.160156 4.070312 L 61.507812 4.070312 L 61.507812 50.695312 L 3.160156 50.695312 Z M 3.160156 4.070312 " clip-rule="nonzero"/></clipPath><clipPath id="bbfd4b0d29"><path d="M 0 0.304688 L 58.542969 0.304688 L 58.542969 46.992188 L 0 46.992188 Z M 0 0.304688 " clip-rule="nonzero"/></clipPath></defs><g clip-path="url(#7b17058eb7)"><path fill="#000000" d="M 3.195312 40.039062 C 3.195312 41.621094 4.359375 42.710938 6.121094 42.710938 L 11.777344 42.710938 C 16.046875 42.710938 18.628906 41.472656 21.703125 37.886719 L 27.285156 31.40625 L 32.84375 37.886719 C 35.921875 41.472656 38.476562 42.734375 42.820312 42.734375 L 47.359375 42.734375 L 47.359375 48.226562 C 47.359375 49.5625 48.203125 50.402344 49.59375 50.402344 C 50.1875 50.402344 50.808594 50.179688 51.253906 49.785156 L 60.636719 42.066406 C 61.777344 41.152344 61.75 39.667969 60.636719 38.753906 L 51.253906 30.984375 C 50.808594 30.589844 50.1875 30.367188 49.59375 30.367188 C 48.203125 30.367188 47.359375 31.207031 47.359375 32.542969 L 47.359375 37.34375 L 42.945312 37.34375 C 40.386719 37.34375 38.800781 36.527344 36.765625 34.175781 L 30.835938 27.277344 L 36.765625 20.398438 C 38.800781 18.023438 40.386719 17.207031 42.945312 17.207031 L 47.359375 17.207031 L 47.359375 22.179688 C 47.359375 23.515625 48.203125 24.355469 49.59375 24.355469 C 50.1875 24.355469 50.808594 24.132812 51.253906 23.738281 L 60.636719 16.019531 C 61.777344 15.105469 61.75 13.644531 60.636719 12.707031 L 51.253906 4.941406 C 50.808594 4.542969 50.1875 4.320312 49.59375 4.320312 C 48.203125 4.320312 47.359375 5.164062 47.359375 6.496094 L 47.359375 11.839844 L 42.820312 11.839844 C 38.476562 11.839844 35.921875 13.101562 32.84375 16.6875 L 27.285156 23.167969 L 21.703125 16.6875 C 18.628906 13.101562 16.046875 11.839844 11.777344 11.839844 L 6.121094 11.839844 C 4.359375 11.839844 3.195312 12.929688 3.195312 14.535156 C 3.195312 16.121094 4.386719 17.234375 6.121094 17.234375 L 11.878906 17.234375 C 14.285156 17.234375 15.796875 18.050781 17.808594 20.398438 L 23.738281 27.277344 L 17.808594 34.175781 C 15.773438 36.527344 14.261719 37.34375 11.878906 37.34375 L 6.121094 37.34375 C 4.386719 37.34375 3.195312 38.457031 3.195312 40.039062 Z M 3.195312 40.039062 " fill-opacity="1" fill-rule="nonzero"/></g><g clip-path="url(#bbfd4b0d29)"><path fill="#ffc764" d="M 0.0351562 36.191406 C 0.0351562 37.769531 1.195312 38.855469 2.945312 38.855469 L 8.574219 38.855469 C 12.816406 38.855469 15.386719 37.621094 18.445312 34.042969 L 24 27.578125 L 29.527344 34.042969 C 32.585938 37.621094 35.128906 38.882812 39.449219 38.882812 L 43.964844 38.882812 L 43.964844 44.359375 C 43.964844 45.691406 44.804688 46.53125 46.1875 46.53125 C 46.777344 46.53125 47.394531 46.308594 47.839844 45.914062 L 57.167969 38.214844 C 58.304688 37.300781 58.277344 35.820312 57.167969 34.90625 L 47.839844 27.160156 C 47.394531 26.761719 46.777344 26.542969 46.1875 26.542969 C 44.804688 26.542969 43.964844 27.378906 43.964844 28.714844 L 43.964844 33.5 L 39.570312 33.5 C 37.03125 33.5 35.449219 32.6875 33.425781 30.34375 L 27.527344 23.457031 L 33.425781 16.59375 C 35.449219 14.226562 37.03125 13.410156 39.570312 13.410156 L 43.964844 13.410156 L 43.964844 18.371094 C 43.964844 19.703125 44.804688 20.542969 46.1875 20.542969 C 46.777344 20.542969 47.394531 20.320312 47.839844 19.925781 L 57.167969 12.226562 C 58.304688 11.3125 58.277344 9.855469 57.167969 8.917969 L 47.839844 1.171875 C 47.394531 0.773438 46.777344 0.554688 46.1875 0.554688 C 44.804688 0.554688 43.964844 1.390625 43.964844 2.726562 L 43.964844 8.054688 L 39.449219 8.054688 C 35.128906 8.054688 32.585938 9.316406 29.527344 12.894531 L 24 19.359375 L 18.445312 12.894531 C 15.386719 9.316406 12.816406 8.054688 8.574219 8.054688 L 2.945312 8.054688 C 1.195312 8.054688 0.0351562 9.140625 0.0351562 10.746094 C 0.0351562 12.324219 1.21875 13.4375 2.945312 13.4375 L 8.671875 13.4375 C 11.066406 13.4375 12.570312 14.25 14.570312 16.59375 L 20.46875 23.457031 L 14.570312 30.34375 C 12.546875 32.6875 11.042969 33.5 8.671875 33.5 L 2.945312 33.5 C 1.21875 33.5 0.0351562 34.613281 0.0351562 36.191406 Z M 0.0351562 36.191406 " fill-opacity="1" fill-rule="nonzero"/></g></svg>