<svg xmlns="http://www.w3.org/2000/svg" xmlns:xlink="http://www.w3.org/1999/xlink" width="505" zoomAndPan="magnify" viewBox="0 0 378.75 272.250005" height="363" preserveAspectRatio="xMidYMid meet" version="1.0"><defs><clipPath id="2ccf38b3a4"><path d="M 28 21.328125 L 374 21.328125 L 374 269.785156 L 28 269.785156 Z M 28 21.328125 " clip-rule="nonzero"/></clipPath><clipPath id="034a4f8def"><path d="M 3 0 L 350 0 L 350 248.457031 L 3 248.457031 Z M 3 0 " clip-rule="nonzero"/></clipPath></defs><g clip-path="url(#2ccf38b3a4)"><path fill="#000000" d="M 366.226562 131.804688 L 210.332031 24.765625 C 205.21875 21.21875 198.546875 20.773438 193.097656 23.65625 C 187.648438 26.542969 184.203125 32.199219 184.203125 38.410156 L 184.203125 113.503906 L 54.882812 24.765625 C 49.769531 21.21875 43.097656 20.773438 37.648438 23.65625 C 32.199219 26.542969 28.753906 32.199219 28.753906 38.410156 L 28.753906 252.703125 C 28.753906 258.917969 32.199219 264.574219 37.648438 267.457031 C 40.09375 268.675781 42.761719 269.34375 45.433594 269.34375 C 48.769531 269.34375 52.105469 268.34375 54.882812 266.347656 L 184.203125 177.613281 L 184.203125 252.703125 C 184.203125 258.917969 187.648438 264.574219 193.097656 267.457031 C 195.542969 268.675781 198.210938 269.34375 200.878906 269.34375 C 204.105469 269.34375 207.441406 268.34375 210.332031 266.347656 L 366.226562 159.3125 C 370.785156 156.207031 373.453125 150.992188 373.453125 145.558594 C 373.453125 140.121094 370.785156 134.910156 366.226562 131.804688 Z M 366.226562 131.804688 " fill-opacity="1" fill-rule="nonzero"/></g><g clip-path="url(#034a4f8def)"><path fill="#ffc764" d="M 341.867188 110.980469 L 185.644531 3.453125 C 180.519531 -0.113281 173.835938 -0.558594 168.375 2.339844 C 162.914062 5.238281 159.460938 10.917969 159.460938 17.160156 L 159.460938 92.59375 L 29.871094 3.453125 C 24.746094 -0.113281 18.058594 -0.558594 12.601562 2.339844 C 7.140625 5.238281 3.6875 10.917969 3.6875 17.160156 L 3.6875 232.4375 C 3.6875 238.675781 7.140625 244.359375 12.601562 247.253906 C 15.050781 248.480469 17.726562 249.148438 20.402344 249.148438 C 23.742188 249.148438 27.085938 248.148438 29.871094 246.140625 L 159.460938 157 L 159.460938 232.4375 C 159.460938 238.675781 162.914062 244.359375 168.375 247.253906 C 170.828125 248.480469 173.5 249.148438 176.175781 249.148438 C 179.40625 249.148438 182.75 248.148438 185.644531 246.140625 L 341.867188 138.613281 C 346.433594 135.496094 349.109375 130.257812 349.109375 124.796875 C 349.109375 119.339844 346.433594 114.101562 341.867188 110.980469 Z M 341.867188 110.980469 " fill-opacity="1" fill-rule="nonzero"/></g></svg>