<svg xmlns="http://www.w3.org/2000/svg" xmlns:xlink="http://www.w3.org/1999/xlink" width="505" zoomAndPan="magnify" viewBox="0 0 328.5 233.249991" height="363" preserveAspectRatio="xMidYMid meet" version="1.0"><defs><clipPath id="669a2fc772"><path d="M 27 18 L 325 18 L 325 231.90625 L 27 231.90625 Z M 27 18 " clip-rule="nonzero"/></clipPath><clipPath id="bf337022cf"><path d="M 3 0.980469 L 301 0.980469 L 301 214.953125 L 3 214.953125 Z M 3 0.980469 " clip-rule="nonzero"/></clipPath></defs><g clip-path="url(#669a2fc772)"><path fill="#000000" d="M 33.855469 136.761719 L 168.113281 228.945312 C 172.515625 232 178.261719 232.382812 182.953125 229.898438 C 187.648438 227.414062 190.617188 222.542969 190.617188 217.195312 L 190.617188 152.523438 L 301.984375 228.945312 C 306.390625 232 312.136719 232.382812 316.828125 229.898438 C 321.519531 227.414062 324.488281 222.542969 324.488281 217.195312 L 324.488281 32.640625 C 324.488281 27.292969 321.519531 22.421875 316.828125 19.9375 C 314.722656 18.886719 312.421875 18.3125 310.125 18.3125 C 307.253906 18.3125 304.378906 19.171875 301.984375 20.890625 L 190.617188 97.3125 L 190.617188 32.640625 C 190.617188 27.292969 187.648438 22.421875 182.953125 19.9375 C 180.847656 18.886719 178.550781 18.3125 176.25 18.3125 C 173.472656 18.3125 170.601562 19.171875 168.113281 20.890625 L 33.855469 113.074219 C 29.929688 115.75 27.632812 120.238281 27.632812 124.917969 C 27.632812 129.597656 29.929688 134.089844 33.855469 136.761719 Z M 33.855469 136.761719 " fill-opacity="1" fill-rule="nonzero"/></g><g clip-path="url(#bf337022cf)"><path fill="#ffc764" d="M 9.347656 119.375 L 143.886719 211.980469 C 148.300781 215.050781 154.058594 215.433594 158.761719 212.9375 C 163.460938 210.445312 166.4375 205.550781 166.4375 200.175781 L 166.4375 135.210938 L 278.039062 211.980469 C 282.453125 215.050781 288.210938 215.433594 292.914062 212.9375 C 297.617188 210.445312 300.589844 205.550781 300.589844 200.175781 L 300.589844 14.777344 C 300.589844 9.40625 297.617188 4.511719 292.914062 2.015625 C 290.804688 0.960938 288.5 0.382812 286.195312 0.382812 C 283.320312 0.382812 280.441406 1.246094 278.039062 2.976562 L 166.4375 79.742188 L 166.4375 14.777344 C 166.4375 9.40625 163.460938 4.511719 158.761719 2.015625 C 156.648438 0.960938 154.347656 0.382812 152.042969 0.382812 C 149.261719 0.382812 146.382812 1.246094 143.886719 2.976562 L 9.347656 95.578125 C 5.414062 98.265625 3.109375 102.773438 3.109375 107.476562 C 3.109375 112.179688 5.414062 116.6875 9.347656 119.375 Z M 9.347656 119.375 " fill-opacity="1" fill-rule="nonzero"/></g></svg>