<svg xmlns="http://www.w3.org/2000/svg" xmlns:xlink="http://www.w3.org/1999/xlink" width="131" zoomAndPan="magnify" viewBox="0 0 98.25 78.749998" height="105" preserveAspectRatio="xMidYMid meet" version="1.0"><defs><clipPath id="993f344d89"><path d="M 3 4.304688 L 97 4.304688 L 97 77.753906 L 3 77.753906 Z M 3 4.304688 " clip-rule="nonzero"/></clipPath><clipPath id="0400cc1396"><path d="M 0 0.175781 L 94.605469 0.175781 L 94.605469 73.625 L 0 73.625 Z M 0 0.175781 " clip-rule="nonzero"/></clipPath></defs><g clip-path="url(#993f344d89)"><path fill="#000000" d="M 92.167969 30.949219 C 90.894531 30.949219 89.8125 30.503906 88.914062 29.605469 C 67.398438 8.117188 32.382812 8.117188 10.867188 29.605469 C 10.652344 29.816406 10.421875 30.003906 10.167969 30.167969 C 9.917969 30.335938 9.652344 30.472656 9.375 30.585938 C 9.097656 30.703125 8.808594 30.785156 8.515625 30.84375 C 8.21875 30.902344 7.921875 30.929688 7.621094 30.929688 C 7.320312 30.929688 7.019531 30.898438 6.726562 30.839844 C 6.433594 30.78125 6.144531 30.691406 5.867188 30.578125 C 5.589844 30.460938 5.324219 30.320312 5.074219 30.152344 C 4.824219 29.988281 4.59375 29.796875 4.382812 29.585938 C 4.167969 29.371094 3.980469 29.140625 3.8125 28.890625 C 3.644531 28.640625 3.503906 28.378906 3.386719 28.101562 C 3.273438 27.824219 3.183594 27.539062 3.125 27.242188 C 3.066406 26.949219 3.035156 26.652344 3.035156 26.351562 C 3.035156 26.050781 3.0625 25.753906 3.121094 25.457031 C 3.175781 25.164062 3.261719 24.875 3.375 24.597656 C 3.492188 24.320312 3.628906 24.054688 3.796875 23.804688 C 3.960938 23.554688 4.152344 23.324219 4.363281 23.109375 C 16.515625 10.984375 32.675781 4.304688 49.890625 4.304688 C 67.105469 4.304688 83.277344 10.984375 95.417969 23.109375 C 95.742188 23.429688 96.007812 23.792969 96.222656 24.191406 C 96.4375 24.59375 96.589844 25.015625 96.679688 25.460938 C 96.765625 25.90625 96.789062 26.355469 96.742188 26.808594 C 96.699219 27.257812 96.589844 27.695312 96.414062 28.113281 C 96.242188 28.535156 96.011719 28.917969 95.722656 29.269531 C 95.433594 29.621094 95.101562 29.921875 94.722656 30.175781 C 94.34375 30.425781 93.9375 30.617188 93.5 30.75 C 93.066406 30.882812 92.621094 30.949219 92.167969 30.949219 Z M 82.417969 42.59375 C 82.628906 42.378906 82.820312 42.148438 82.988281 41.894531 C 83.15625 41.644531 83.296875 41.378906 83.414062 41.101562 C 83.527344 40.824219 83.617188 40.535156 83.675781 40.242188 C 83.734375 39.945312 83.765625 39.644531 83.765625 39.34375 C 83.765625 39.042969 83.734375 38.746094 83.675781 38.449219 C 83.617188 38.152344 83.527344 37.867188 83.414062 37.585938 C 83.296875 37.308594 83.15625 37.042969 82.988281 36.792969 C 82.820312 36.542969 82.628906 36.308594 82.417969 36.097656 C 64.484375 18.191406 35.308594 18.191406 17.375 36.097656 C 17.164062 36.3125 16.976562 36.542969 16.8125 36.792969 C 16.644531 37.042969 16.503906 37.308594 16.390625 37.585938 C 16.277344 37.863281 16.191406 38.152344 16.132812 38.445312 C 16.078125 38.742188 16.046875 39.039062 16.050781 39.339844 C 16.050781 39.640625 16.082031 39.9375 16.140625 40.230469 C 16.199219 40.527344 16.285156 40.8125 16.402344 41.089844 C 16.519531 41.367188 16.660156 41.628906 16.828125 41.878906 C 16.992188 42.128906 17.183594 42.359375 17.394531 42.570312 C 17.609375 42.785156 17.839844 42.972656 18.089844 43.140625 C 18.339844 43.308594 18.605469 43.449219 18.882812 43.566406 C 19.160156 43.679688 19.445312 43.769531 19.742188 43.828125 C 20.035156 43.886719 20.332031 43.917969 20.632812 43.917969 C 20.933594 43.917969 21.234375 43.890625 21.527344 43.832031 C 21.824219 43.773438 22.109375 43.691406 22.390625 43.574219 C 22.667969 43.460938 22.933594 43.324219 23.183594 43.15625 C 23.433594 42.992188 23.667969 42.804688 23.882812 42.59375 C 38.226562 28.265625 61.570312 28.265625 75.914062 42.59375 C 76.125 42.804688 76.359375 42.996094 76.609375 43.164062 C 76.859375 43.332031 77.125 43.472656 77.402344 43.589844 C 77.683594 43.703125 77.972656 43.789062 78.265625 43.851562 C 78.5625 43.910156 78.863281 43.9375 79.164062 43.9375 C 79.464844 43.9375 79.765625 43.910156 80.0625 43.851562 C 80.359375 43.789062 80.644531 43.703125 80.925781 43.589844 C 81.203125 43.472656 81.46875 43.332031 81.71875 43.164062 C 81.972656 42.996094 82.203125 42.804688 82.417969 42.59375 Z M 69.40625 55.582031 C 69.621094 55.367188 69.8125 55.136719 69.980469 54.886719 C 70.148438 54.636719 70.289062 54.371094 70.40625 54.09375 C 70.519531 53.8125 70.609375 53.527344 70.667969 53.230469 C 70.726562 52.933594 70.753906 52.636719 70.753906 52.335938 C 70.753906 52.03125 70.726562 51.734375 70.667969 51.4375 C 70.609375 51.144531 70.519531 50.855469 70.40625 50.578125 C 70.289062 50.296875 70.148438 50.035156 69.980469 49.78125 C 69.8125 49.53125 69.621094 49.300781 69.40625 49.085938 C 58.648438 38.34375 41.144531 38.34375 30.386719 49.085938 C 30.179688 49.300781 29.992188 49.535156 29.832031 49.785156 C 29.667969 50.035156 29.535156 50.296875 29.421875 50.574219 C 29.3125 50.851562 29.230469 51.136719 29.175781 51.429688 C 29.121094 51.722656 29.09375 52.019531 29.097656 52.316406 C 29.097656 52.613281 29.128906 52.910156 29.191406 53.203125 C 29.25 53.492188 29.339844 53.777344 29.453125 54.050781 C 29.570312 54.328125 29.710938 54.589844 29.875 54.835938 C 30.042969 55.082031 30.230469 55.3125 30.441406 55.523438 C 30.652344 55.734375 30.882812 55.921875 31.132812 56.089844 C 31.378906 56.253906 31.640625 56.394531 31.914062 56.511719 C 32.191406 56.625 32.472656 56.714844 32.765625 56.773438 C 33.058594 56.835938 33.355469 56.867188 33.652344 56.867188 C 33.953125 56.871094 34.246094 56.84375 34.539062 56.789062 C 34.835938 56.734375 35.121094 56.652344 35.398438 56.542969 C 35.675781 56.433594 35.9375 56.296875 36.1875 56.136719 C 36.441406 55.972656 36.671875 55.789062 36.886719 55.582031 C 37.3125 55.15625 37.761719 54.753906 38.226562 54.375 C 38.691406 53.992188 39.175781 53.636719 39.675781 53.300781 C 40.179688 52.96875 40.695312 52.660156 41.226562 52.375 C 41.757812 52.09375 42.300781 51.835938 42.859375 51.605469 C 43.414062 51.375 43.980469 51.175781 44.558594 51 C 45.132812 50.824219 45.71875 50.679688 46.308594 50.5625 C 46.898438 50.445312 47.496094 50.359375 48.09375 50.300781 C 48.695312 50.242188 49.292969 50.210938 49.898438 50.210938 C 50.5 50.210938 51.101562 50.242188 51.699219 50.300781 C 52.296875 50.359375 52.894531 50.445312 53.484375 50.5625 C 54.074219 50.679688 54.660156 50.824219 55.234375 51 C 55.8125 51.175781 56.378906 51.375 56.933594 51.605469 C 57.492188 51.835938 58.035156 52.09375 58.566406 52.375 C 59.097656 52.660156 59.613281 52.96875 60.117188 53.300781 C 60.617188 53.636719 61.101562 53.992188 61.566406 54.375 C 62.03125 54.753906 62.480469 55.15625 62.90625 55.582031 C 63.117188 55.796875 63.351562 55.984375 63.601562 56.152344 C 63.851562 56.320312 64.117188 56.460938 64.398438 56.578125 C 64.675781 56.691406 64.964844 56.777344 65.257812 56.839844 C 65.554688 56.898438 65.855469 56.925781 66.15625 56.925781 C 66.457031 56.925781 66.757812 56.898438 67.054688 56.839844 C 67.351562 56.777344 67.636719 56.691406 67.917969 56.578125 C 68.195312 56.460938 68.460938 56.320312 68.710938 56.152344 C 68.960938 55.984375 69.195312 55.796875 69.40625 55.582031 Z M 56.394531 75.066406 C 56.644531 74.816406 56.878906 74.554688 57.097656 74.28125 C 57.316406 74.003906 57.519531 73.71875 57.707031 73.417969 C 57.890625 73.121094 58.058594 72.8125 58.210938 72.496094 C 58.363281 72.179688 58.492188 71.851562 58.605469 71.519531 C 58.722656 71.1875 58.816406 70.847656 58.890625 70.507812 C 58.964844 70.164062 59.019531 69.816406 59.054688 69.464844 C 59.089844 69.117188 59.101562 68.765625 59.097656 68.414062 C 59.09375 68.0625 59.066406 67.710938 59.019531 67.363281 C 58.976562 67.015625 58.910156 66.671875 58.824219 66.328125 C 58.738281 65.988281 58.636719 65.652344 58.511719 65.324219 C 58.386719 64.996094 58.246094 64.675781 58.085938 64.363281 C 57.925781 64.050781 57.746094 63.746094 57.550781 63.453125 C 57.355469 63.160156 57.144531 62.882812 56.917969 62.613281 C 56.6875 62.34375 56.445312 62.089844 56.191406 61.851562 C 55.933594 61.609375 55.664062 61.386719 55.378906 61.175781 C 55.097656 60.964844 54.804688 60.773438 54.5 60.597656 C 54.195312 60.421875 53.882812 60.261719 53.558594 60.121094 C 53.234375 59.984375 52.90625 59.863281 52.570312 59.757812 C 52.230469 59.65625 51.890625 59.574219 51.542969 59.511719 C 51.199219 59.449219 50.847656 59.40625 50.496094 59.382812 C 50.148438 59.359375 49.796875 59.355469 49.445312 59.371094 C 49.09375 59.390625 48.742188 59.425781 48.394531 59.484375 C 48.046875 59.542969 47.703125 59.617188 47.367188 59.714844 C 47.027344 59.8125 46.695312 59.925781 46.371094 60.058594 C 46.046875 60.195312 45.730469 60.347656 45.421875 60.519531 C 45.113281 60.6875 44.816406 60.875 44.53125 61.082031 C 44.242188 61.285156 43.96875 61.503906 43.710938 61.742188 C 43.449219 61.976562 43.203125 62.226562 42.96875 62.492188 C 42.738281 62.757812 42.519531 63.03125 42.320312 63.320312 C 42.121094 63.609375 41.9375 63.910156 41.769531 64.21875 C 41.605469 64.53125 41.457031 64.847656 41.328125 65.175781 C 41.199219 65.5 41.089844 65.835938 40.996094 66.175781 C 40.90625 66.515625 40.835938 66.859375 40.78125 67.207031 C 40.730469 67.554688 40.699219 67.902344 40.6875 68.253906 C 40.675781 68.605469 40.683594 68.957031 40.714844 69.304688 C 40.742188 69.65625 40.789062 70.003906 40.859375 70.347656 C 40.925781 70.695312 41.015625 71.035156 41.125 71.367188 C 41.230469 71.703125 41.355469 72.03125 41.503906 72.351562 C 41.648438 72.671875 41.8125 72.980469 41.992188 73.28125 C 42.171875 73.585938 42.371094 73.875 42.585938 74.152344 C 42.796875 74.433594 43.027344 74.699219 43.273438 74.949219 C 43.519531 75.203125 43.777344 75.441406 44.046875 75.664062 C 44.320312 75.886719 44.605469 76.09375 44.898438 76.285156 C 45.195312 76.476562 45.5 76.648438 45.816406 76.804688 C 46.132812 76.957031 46.457031 77.097656 46.789062 77.214844 C 47.121094 77.332031 47.457031 77.433594 47.800781 77.511719 C 48.140625 77.589844 48.488281 77.652344 48.839844 77.691406 C 49.1875 77.730469 49.539062 77.75 49.890625 77.75 C 51.109375 77.75 52.285156 77.519531 53.410156 77.054688 C 54.539062 76.589844 55.53125 75.925781 56.394531 75.066406 Z M 56.394531 75.066406 " fill-opacity="1" fill-rule="nonzero"/></g><g clip-path="url(#0400cc1396)"><path fill="#ffc764" d="M 89.644531 26.863281 C 88.375 26.867188 87.289062 26.417969 86.394531 25.519531 C 64.867188 3.992188 29.84375 3.992188 8.320312 25.519531 C 8.105469 25.730469 7.871094 25.917969 7.621094 26.082031 C 7.371094 26.25 7.105469 26.390625 6.828125 26.503906 C 6.546875 26.617188 6.261719 26.703125 5.964844 26.761719 C 5.671875 26.816406 5.371094 26.847656 5.070312 26.84375 C 4.769531 26.84375 4.472656 26.8125 4.175781 26.753906 C 3.882812 26.695312 3.597656 26.609375 3.320312 26.492188 C 3.039062 26.375 2.777344 26.234375 2.527344 26.066406 C 2.277344 25.902344 2.046875 25.710938 1.832031 25.496094 C 1.621094 25.285156 1.429688 25.054688 1.261719 24.804688 C 1.09375 24.554688 0.953125 24.289062 0.835938 24.011719 C 0.722656 23.734375 0.632812 23.449219 0.574219 23.152344 C 0.515625 22.855469 0.484375 22.558594 0.484375 22.257812 C 0.484375 21.957031 0.511719 21.660156 0.570312 21.363281 C 0.628906 21.070312 0.714844 20.78125 0.828125 20.503906 C 0.941406 20.226562 1.082031 19.960938 1.246094 19.707031 C 1.414062 19.457031 1.601562 19.226562 1.8125 19.011719 C 13.96875 6.863281 30.132812 0.175781 47.355469 0.175781 C 64.578125 0.175781 80.75 6.863281 92.898438 19.011719 C 93.222656 19.332031 93.488281 19.695312 93.703125 20.09375 C 93.917969 20.496094 94.070312 20.921875 94.160156 21.367188 C 94.246094 21.8125 94.269531 22.261719 94.222656 22.714844 C 94.179688 23.167969 94.070312 23.605469 93.894531 24.023438 C 93.722656 24.445312 93.492188 24.832031 93.203125 25.183594 C 92.914062 25.535156 92.578125 25.835938 92.203125 26.089844 C 91.824219 26.34375 91.417969 26.535156 90.980469 26.667969 C 90.546875 26.796875 90.101562 26.863281 89.644531 26.863281 Z M 79.894531 38.527344 C 80.105469 38.316406 80.296875 38.082031 80.464844 37.832031 C 80.632812 37.582031 80.773438 37.316406 80.890625 37.035156 C 81.003906 36.757812 81.09375 36.46875 81.152344 36.171875 C 81.210938 35.875 81.242188 35.578125 81.242188 35.277344 C 81.242188 34.972656 81.210938 34.675781 81.152344 34.378906 C 81.09375 34.082031 81.003906 33.792969 80.890625 33.515625 C 80.773438 33.234375 80.632812 32.96875 80.464844 32.71875 C 80.296875 32.46875 80.105469 32.234375 79.894531 32.023438 C 61.953125 14.085938 32.769531 14.085938 14.832031 32.023438 C 14.621094 32.238281 14.429688 32.46875 14.265625 32.71875 C 14.097656 32.972656 13.960938 33.234375 13.84375 33.515625 C 13.730469 33.792969 13.644531 34.078125 13.589844 34.375 C 13.53125 34.671875 13.503906 34.96875 13.503906 35.269531 C 13.503906 35.570312 13.535156 35.867188 13.59375 36.164062 C 13.652344 36.457031 13.742188 36.746094 13.855469 37.023438 C 13.972656 37.300781 14.113281 37.566406 14.28125 37.816406 C 14.449219 38.066406 14.636719 38.296875 14.851562 38.507812 C 15.0625 38.722656 15.296875 38.910156 15.546875 39.078125 C 15.796875 39.246094 16.058594 39.386719 16.335938 39.503906 C 16.613281 39.617188 16.902344 39.707031 17.195312 39.765625 C 17.492188 39.824219 17.789062 39.855469 18.089844 39.855469 C 18.390625 39.855469 18.6875 39.828125 18.984375 39.773438 C 19.28125 39.714844 19.566406 39.628906 19.84375 39.515625 C 20.125 39.402344 20.390625 39.261719 20.640625 39.09375 C 20.890625 38.929688 21.125 38.742188 21.335938 38.527344 C 35.6875 24.179688 59.039062 24.179688 73.386719 38.527344 C 73.601562 38.742188 73.832031 38.933594 74.082031 39.101562 C 74.335938 39.269531 74.597656 39.410156 74.878906 39.527344 C 75.15625 39.640625 75.445312 39.730469 75.742188 39.789062 C 76.039062 39.847656 76.335938 39.878906 76.640625 39.878906 C 76.941406 39.878906 77.242188 39.847656 77.539062 39.789062 C 77.832031 39.730469 78.121094 39.640625 78.398438 39.527344 C 78.679688 39.410156 78.945312 39.269531 79.195312 39.101562 C 79.445312 38.933594 79.679688 38.742188 79.894531 38.527344 Z M 66.878906 51.542969 C 67.09375 51.328125 67.285156 51.097656 67.453125 50.84375 C 67.621094 50.59375 67.761719 50.328125 67.878906 50.050781 C 67.992188 49.769531 68.078125 49.484375 68.140625 49.1875 C 68.199219 48.890625 68.226562 48.589844 68.226562 48.289062 C 68.226562 47.988281 68.199219 47.6875 68.140625 47.390625 C 68.078125 47.09375 67.992188 46.808594 67.875 46.527344 C 67.761719 46.25 67.621094 45.984375 67.453125 45.734375 C 67.285156 45.480469 67.09375 45.25 66.878906 45.035156 C 56.117188 34.273438 38.605469 34.273438 27.84375 45.035156 C 27.636719 45.25 27.453125 45.484375 27.289062 45.734375 C 27.128906 45.984375 26.992188 46.25 26.882812 46.527344 C 26.769531 46.804688 26.6875 47.089844 26.632812 47.382812 C 26.578125 47.675781 26.550781 47.972656 26.554688 48.269531 C 26.558594 48.570312 26.589844 48.863281 26.648438 49.15625 C 26.710938 49.449219 26.796875 49.734375 26.914062 50.007812 C 27.027344 50.285156 27.167969 50.546875 27.335938 50.792969 C 27.5 51.042969 27.691406 51.273438 27.902344 51.484375 C 28.113281 51.695312 28.34375 51.882812 28.589844 52.050781 C 28.839844 52.214844 29.097656 52.355469 29.375 52.472656 C 29.648438 52.585938 29.933594 52.675781 30.226562 52.734375 C 30.519531 52.796875 30.816406 52.828125 31.113281 52.832031 C 31.410156 52.832031 31.707031 52.808594 32 52.753906 C 32.292969 52.699219 32.582031 52.613281 32.859375 52.503906 C 33.136719 52.394531 33.398438 52.257812 33.648438 52.09375 C 33.902344 51.933594 34.132812 51.75 34.347656 51.542969 C 34.777344 51.117188 35.222656 50.710938 35.6875 50.332031 C 36.152344 49.949219 36.636719 49.589844 37.140625 49.257812 C 37.640625 48.921875 38.15625 48.613281 38.6875 48.332031 C 39.21875 48.046875 39.765625 47.789062 40.320312 47.558594 C 40.878906 47.328125 41.445312 47.125 42.019531 46.953125 C 42.597656 46.777344 43.183594 46.632812 43.773438 46.515625 C 44.363281 46.398438 44.960938 46.308594 45.558594 46.25 C 46.160156 46.191406 46.757812 46.160156 47.363281 46.160156 C 47.964844 46.160156 48.566406 46.191406 49.164062 46.25 C 49.765625 46.308594 50.359375 46.398438 50.949219 46.515625 C 51.542969 46.632812 52.125 46.777344 52.703125 46.953125 C 53.277344 47.125 53.847656 47.328125 54.402344 47.558594 C 54.960938 47.789062 55.503906 48.046875 56.035156 48.332031 C 56.566406 48.613281 57.082031 48.921875 57.585938 49.257812 C 58.085938 49.589844 58.570312 49.949219 59.035156 50.332031 C 59.503906 50.710938 59.949219 51.117188 60.375 51.542969 C 60.589844 51.753906 60.820312 51.945312 61.070312 52.113281 C 61.324219 52.28125 61.589844 52.421875 61.867188 52.539062 C 62.144531 52.652344 62.433594 52.742188 62.730469 52.800781 C 63.027344 52.859375 63.324219 52.886719 63.628906 52.886719 C 63.929688 52.886719 64.226562 52.859375 64.523438 52.800781 C 64.820312 52.742188 65.109375 52.652344 65.386719 52.539062 C 65.667969 52.421875 65.929688 52.28125 66.183594 52.113281 C 66.433594 51.945312 66.667969 51.753906 66.878906 51.542969 Z M 53.863281 71.058594 C 54.113281 70.8125 54.347656 70.546875 54.566406 70.273438 C 54.785156 69.996094 54.988281 69.710938 55.171875 69.410156 C 55.359375 69.113281 55.527344 68.804688 55.679688 68.484375 C 55.828125 68.167969 55.960938 67.84375 56.074219 67.507812 C 56.1875 67.175781 56.28125 66.835938 56.359375 66.492188 C 56.433594 66.148438 56.488281 65.800781 56.523438 65.449219 C 56.558594 65.101562 56.570312 64.75 56.566406 64.398438 C 56.558594 64.042969 56.535156 63.695312 56.488281 63.34375 C 56.445312 62.996094 56.378906 62.652344 56.292969 62.308594 C 56.207031 61.96875 56.101562 61.632812 55.980469 61.300781 C 55.855469 60.972656 55.714844 60.652344 55.550781 60.335938 C 55.390625 60.023438 55.214844 59.722656 55.019531 59.429688 C 54.824219 59.136719 54.613281 58.855469 54.382812 58.585938 C 54.15625 58.316406 53.914062 58.0625 53.65625 57.820312 C 53.398438 57.582031 53.128906 57.355469 52.847656 57.144531 C 52.566406 56.933594 52.269531 56.742188 51.964844 56.566406 C 51.660156 56.390625 51.347656 56.230469 51.023438 56.089844 C 50.703125 55.949219 50.371094 55.828125 50.035156 55.726562 C 49.699219 55.625 49.355469 55.542969 49.011719 55.480469 C 48.664062 55.414062 48.316406 55.371094 47.964844 55.347656 C 47.613281 55.324219 47.261719 55.324219 46.910156 55.339844 C 46.558594 55.355469 46.207031 55.394531 45.859375 55.449219 C 45.511719 55.507812 45.167969 55.585938 44.832031 55.679688 C 44.492188 55.777344 44.160156 55.894531 43.835938 56.027344 C 43.507812 56.164062 43.191406 56.316406 42.886719 56.488281 C 42.578125 56.65625 42.28125 56.84375 41.992188 57.050781 C 41.707031 57.253906 41.433594 57.476562 41.171875 57.710938 C 40.910156 57.949219 40.664062 58.199219 40.433594 58.464844 C 40.199219 58.730469 39.984375 59.003906 39.785156 59.296875 C 39.582031 59.585938 39.398438 59.882812 39.234375 60.195312 C 39.066406 60.503906 38.921875 60.824219 38.789062 61.152344 C 38.660156 61.480469 38.550781 61.8125 38.460938 62.152344 C 38.367188 62.492188 38.296875 62.835938 38.246094 63.1875 C 38.191406 63.535156 38.160156 63.882812 38.148438 64.234375 C 38.136719 64.589844 38.148438 64.941406 38.175781 65.289062 C 38.203125 65.640625 38.253906 65.988281 38.320312 66.335938 C 38.390625 66.679688 38.476562 67.019531 38.585938 67.355469 C 38.695312 67.691406 38.820312 68.019531 38.964844 68.339844 C 39.109375 68.660156 39.273438 68.972656 39.453125 69.273438 C 39.636719 69.578125 39.832031 69.867188 40.046875 70.144531 C 40.261719 70.425781 40.492188 70.691406 40.734375 70.945312 C 40.980469 71.199219 41.238281 71.4375 41.511719 71.660156 C 41.785156 71.882812 42.066406 72.089844 42.363281 72.28125 C 42.660156 72.472656 42.964844 72.644531 43.28125 72.800781 C 43.597656 72.957031 43.921875 73.09375 44.253906 73.210938 C 44.585938 73.332031 44.921875 73.429688 45.265625 73.511719 C 45.605469 73.589844 45.953125 73.652344 46.304688 73.691406 C 46.652344 73.730469 47.003906 73.75 47.355469 73.75 C 48.574219 73.75 49.75 73.519531 50.878906 73.050781 C 52.003906 72.585938 53 71.921875 53.863281 71.058594 Z M 53.863281 71.058594 " fill-opacity="1" fill-rule="nonzero"/></g></svg>